<svg xmlns="http://www.w3.org/2000/svg" viewBox="0 0 270 270" width="270" height="270" preserveAspectRatio="xMidYMid meet" style="width: 100%; height: 100%; transform: translate3d(0px, 0px, 0px);"><defs><clipPath id="__lottie_element_64"><rect width="270" height="270" x="0" y="0"></rect></clipPath><filter id="__lottie_element_70" filterUnits="objectBoundingBox" x="0%" y="0%" width="100%" height="100%"><feColorMatrix type="matrix" color-interpolation-filters="sRGB" values="0 0 0 0 0.26274511218070984 0 0 0 0 0.32156863808631897 0 0 0 0 0.3529411852359772 0 0 0 1 0"></feColorMatrix></filter><filter id="__lottie_element_73" filterUnits="objectBoundingBox" x="0%" y="0%" width="100%" height="100%"><feColorMatrix type="matrix" color-interpolation-filters="sRGB" values="0 0 0 0 0.26274511218070984 0 0 0 0 0.32156863808631897 0 0 0 0 0.3529411852359772 0 0 0 1 0"></feColorMatrix></filter><filter id="__lottie_element_76" filterUnits="objectBoundingBox" x="0%" y="0%" width="100%" height="100%"><feColorMatrix type="matrix" color-interpolation-filters="sRGB" values="0 0 0 0 0.26274511218070984 0 0 0 0 0.32156863808631897 0 0 0 0 0.3529411852359772 0 0 0 1 0"></feColorMatrix></filter><filter id="__lottie_element_79" filterUnits="objectBoundingBox" x="0%" y="0%" width="100%" height="100%"><feColorMatrix type="matrix" color-interpolation-filters="sRGB" values="0 0 0 0 0.26274511218070984 0 0 0 0 0.32156863808631897 0 0 0 0 0.3529411852359772 0 0 0 1 0"></feColorMatrix></filter></defs><g clip-path="url(#__lottie_element_64)"><g filter="url(#__lottie_element_79)" style="display: block;" transform="matrix(1,0,0,1,11.75,174.81500244140625)" opacity="1"><g opacity="1" transform="matrix(1,0,0,1,12.190999984741211,18.64900016784668)"><path fill="rgb(255,255,255)" fill-opacity="1" d=" M11.687000274658203,11.133999824523926 C11.687000274658203,12.557999610900879 11.598999977111816,13.277000427246094 10.944999694824219,13.960000038146973 C10.067000389099121,14.875 6.660999774932861,16.492000579833984 2.302999973297119,16.492000579833984 C-7.22599983215332,16.492000579833984 -11.940999984741211,10.244999885559082 -11.940999984741211,0.42100000381469727 C-11.940999984741211,-9.402999877929688 -6.800000190734863,-16.492000579833984 2.871999979019165,-16.492000579833984 C6.058000087738037,-16.492000579833984 10.324999809265137,-15.145999908447266 11.239999771118164,-13.505000114440918 C11.720999717712402,-12.63599967956543 11.940999984741211,-8.246999740600586 10.67300033569336,-8.246999740600586 C9.656000137329102,-8.246999740600586 7.8470001220703125,-11.03600025177002 3.1449999809265137,-11.03600025177002 C-2.6089999675750732,-11.03600025177002 -4.929999828338623,-5.7210001945495605 -4.929999828338623,0.07599999755620956 C-4.929999828338623,6.127999782562256 -2.7820000648498535,10.98799991607666 3.315999984741211,10.98799991607666 C9.949999809265137,10.980999946594238 11.687000274658203,5.068999767303467 11.687000274658203,11.133999824523926z"></path></g><g opacity="1" transform="matrix(1,0,0,1,35.255001068115234,22.763999938964844)"><path fill="rgb(255,255,255)" fill-opacity="1" d=" M10.043999671936035,11.086999893188477 C10.053000450134277,11.29699993133545 9.961999893188477,11.498000144958496 9.798999786376953,11.630000114440918 C9.060999870300293,11.949000358581543 8.253999710083008,12.076000213623047 7.453999996185303,11.99899959564209 C4.479000091552734,11.99899959564209 4.910999774932861,11.67300033569336 4.910999774932861,9.331000328063965 C3.1419999599456787,11.312999725341797 0.6050000190734863,12.437000274658203 -2.0510001182556152,12.416999816894531 C-6.74399995803833,12.416999816894531 -10.076000213623047,9.951000213623047 -10.076000213623047,5.257999897003174 C-10.076000213623047,-0.8840000033378601 -4.296000003814697,-2.249000072479248 1.7990000247955322,-2.249000072479248 C1.7990000247955322,-2.249000072479248 3.944999933242798,-2.249000072479248 3.944999933242798,-2.249000072479248 C3.944999933242798,-5.664000034332275 3.805000066757202,-7.704999923706055 -0.22699999809265137,-7.704999923706055 C-2.5230000019073486,-7.672999858856201 -4.76800012588501,-7.025000095367432 -6.7270002365112305,-5.828000068664551 C-7.21999979019165,-5.554999828338623 -7.809000015258789,-5.307000160217285 -8.234000205993652,-5.6539998054504395 C-8.946999549865723,-6.239999771118164 -8.961000442504883,-8.390000343322754 -8.741000175476074,-9.184000015258789 C-8.265999794006348,-10.892999649047852 -4.25600004196167,-11.883999824523926 -2.50600004196167,-12.184000015258789 C-1.5720000267028809,-12.342000007629395 -0.6269999742507935,-12.420999526977539 0.3199999928474426,-12.420000076293945 C4.420000076293945,-12.420000076293945 8.232999801635742,-11.520000457763672 9.505000114440918,-7.65500020980835 C9.892000198364258,-6.383999824523926 10.076000213623047,-5.059000015258789 10.048999786376953,-3.7309999465942383 C10.048999786376953,-3.7309999465942383 10.043999671936035,11.086999893188477 10.043999671936035,11.086999893188477z M3.944999933242798,1.656999945640564 C0.41499999165534973,1.656999945640564 -4.00600004196167,1.3619999885559082 -4.00600004196167,5.063000202178955 C-4.00600004196167,8.097000122070312 -0.5120000243186951,8.708000183105469 1.7120000123977661,7.36299991607666 C2.549999952316284,6.828000068664551 3.302000045776367,6.170000076293945 3.944999933242798,5.4120001792907715 C3.944999933242798,5.4120001792907715 3.944999933242798,1.656999945640564 3.944999933242798,1.656999945640564z"></path></g><g opacity="1" transform="matrix(1,0,0,1,56.34700012207031,22.76300048828125)"><path fill="rgb(255,255,255)" fill-opacity="1" d=" M8.553000450134277,4.790999889373779 C8.553000450134277,10.052000045776367 4.252999782562256,12.418999671936035 -0.9760000109672546,12.418999671936035 C-2.9830000400543213,12.418999671936035 -6.474999904632568,11.791999816894531 -7.690999984741211,10.628999710083008 C-8.553000450134277,9.807000160217285 -8.362000465393066,6.308000087738037 -7.815999984741211,5.988999843597412 C-7.0960001945495605,5.570000171661377 -6.5,6.658999919891357 -3.4820001125335693,7.579999923706055 C-1.0720000267028809,8.317999839782715 2.505000114440918,8.013999938964844 2.505000114440918,5.28000020980835 C2.505000114440918,3.180000066757202 -0.5080000162124634,2.546999931335449 -2.815999984741211,1.5800000429153442 C-6.163000106811523,0.17499999701976776 -8.135000228881836,-1.6399999856948853 -8.135000228881836,-5.284999847412109 C-8.135000228881836,-10.022000312805176 -4.0929999351501465,-12.418999671936035 0.8259999752044678,-12.418999671936035 C2.436000108718872,-12.418999671936035 6.381999969482422,-11.847999572753906 7.047999858856201,-10.604000091552734 C7.377999782562256,-9.366000175476074 7.416999816894531,-8.067999839782715 7.159999847412109,-6.813000202178955 C6.684999942779541,-5.456999778747559 4.860000133514404,-8.02299976348877 0.9750000238418579,-8.02299976348877 C-0.75,-8.02299976348877 -2.2860000133514404,-7.389999866485596 -2.2860000133514404,-5.677999973297119 C-2.2860000133514404,-3.555999994277954 0.8500000238418579,-2.9170000553131104 3.132999897003174,-1.9869999885559082 C6.4120001792907715,-0.6489999890327454 8.553000450134277,1.1779999732971191 8.553000450134277,4.790999889373779z"></path></g><g opacity="1" transform="matrix(1,0,0,1,77.08300018310547,22.764999389648438)"><path fill="rgb(255,255,255)" fill-opacity="1" d=" M10.253999710083008,1.0379999876022339 C9.887999534606934,1.4129999876022339 9.376999855041504,1.6109999418258667 8.854000091552734,1.5809999704360962 C8.854000091552734,1.5809999704360962 -4.547999858856201,1.5809999704360962 -4.547999858856201,1.5809999704360962 C-4.547999858856201,5.651000022888184 -2.5940001010894775,7.729000091552734 1.4759999513626099,7.729000091552734 C6.526000022888184,7.729000091552734 8.413999557495117,5.794000148773193 9.300999641418457,6.309000015258789 C9.918000221252441,6.671999931335449 9.802000045776367,9.692999839782715 9.47599983215332,10.309000015258789 C9.406000137329102,10.439000129699707 9.317999839782715,10.559000015258789 9.21500015258789,10.664999961853027 C8.515000343322754,11.416000366210938 4.27400016784668,12.418999671936035 0.9079999923706055,12.418999671936035 C-7.258999824523926,12.418999671936035 -10.868000030517578,8.196000099182129 -10.868000030517578,0.2460000067949295 C-10.868000030517578,-7.242000102996826 -6.999000072479248,-12.418999671936035 0.36500000953674316,-12.418999671936035 C7.295000076293945,-12.418999671936035 10.760000228881836,-8.286999702453613 10.760000228881836,-1.6299999952316284 C10.760000228881836,-0.7080000042915344 10.868000030517578,0.3779999911785126 10.253999710083008,1.0379999876022339z M4.736000061035156,-2.4210000038146973 C4.864999771118164,-3.869999885559082 4.494999885559082,-5.320000171661377 3.687999963760376,-6.531000137329102 C2.8480000495910645,-7.567999839782715 1.5499999523162842,-8.12600040435791 0.21899999678134918,-8.02299976348877 C-2.8980000019073486,-8.02299976348877 -4.4120001792907715,-5.559000015258789 -4.546000003814697,-2.4170000553131104 C-4.546000003814697,-2.4170000553131104 4.736000061035156,-2.4170000553131104 4.736000061035156,-2.4170000553131104 C4.736000061035156,-2.4170000553131104 4.736000061035156,-2.4210000038146973 4.736000061035156,-2.4210000038146973z"></path></g><g opacity="1" transform="matrix(1,0,0,1,102.73799896240234,18.91900062561035)"><path fill="rgb(255,255,255)" fill-opacity="1" d=" M11.555000305175781,6.114999771118164 C11.673999786376953,9.052000045776367 10.256999969482422,11.83899974822998 7.814000129699707,13.472999572753906 C3.450000047683716,16.38599967956543 -2.3519999980926514,15.694999694824219 -9.654000282287598,15.694999694824219 C-10.64900016784668,15.770000457763672 -11.517000198364258,15.02400016784668 -11.592000007629395,14.029000282287598 C-11.60200023651123,13.901000022888184 -11.597999572753906,13.772000312805176 -11.579999923706055,13.645000457763672 C-11.579999923706055,13.645000457763672 -11.579999923706055,-14.206000328063965 -11.579999923706055,-14.206000328063965 C-11.717000007629395,-15.194999694824219 -11.027000427246094,-16.106000900268555 -10.038000106811523,-16.243000030517578 C-9.91100025177002,-16.26099967956543 -9.781999588012695,-16.266000747680664 -9.654000282287598,-16.256000518798828 C-9.654000282287598,-16.256000518798828 -1.6299999952316284,-16.256000518798828 -1.6299999952316284,-16.256000518798828 C4.624000072479248,-16.256000518798828 9.652000427246094,-14.40999984741211 9.652000427246094,-8.131999969482422 C9.776000022888184,-5.203999996185303 7.9730000495910645,-2.5369999408721924 5.208000183105469,-1.5640000104904175 C8.977999687194824,-1.00600004196167 11.717000007629395,2.308000087738037 11.555000305175781,6.114999771118164z M3.1600000858306885,-7.336999893188477 C3.1600000858306885,-11.987000465393066 -1.350000023841858,-11.385000228881836 -5.209000110626221,-11.385000228881836 C-5.209000110626221,-11.385000228881836 -5.209000110626221,-3.0899999141693115 -5.209000110626221,-3.0899999141693115 C-1.684999942779541,-3.0899999141693115 -0.40799999237060547,-2.990999937057495 0.6669999957084656,-3.4230000972747803 C2.259000062942505,-4.048999786376953 3.265000104904175,-5.629000186920166 3.1600000858306885,-7.336999893188477z M4.814000129699707,6.339000225067139 C4.814000129699707,0.8109999895095825 -1.3009999990463257,1.6480000019073486 -5.209000110626221,1.6480000019073486 C-5.209000110626221,1.6480000019073486 -5.209000110626221,10.734000205993652 -5.209000110626221,10.734000205993652 C-5.209000110626221,10.734000205993652 -0.5189999938011169,10.734000205993652 -0.5189999938011169,10.734000205993652 C3.1449999809265137,10.734000205993652 4.814000129699707,8.85200023651123 4.814000129699707,6.339000225067139 C4.814000129699707,6.339000225067139 4.814000129699707,6.339000225067139 4.814000129699707,6.339000225067139z"></path></g><g opacity="1" transform="matrix(1,0,0,1,127.4000015258789,22.957000732421875)"><path fill="rgb(255,255,255)" fill-opacity="1" d=" M10.506999969482422,10.819999694824219 C10.506999969482422,11.8100004196167 8.859000205993652,11.805999755859375 7.86299991607666,11.805999755859375 C6.867000102996826,11.805999755859375 5.195000171661377,11.817999839782715 5.195000171661377,10.819999694824219 C5.195000171661377,10.819999694824219 5.195000171661377,8.276000022888184 5.195000171661377,8.276000022888184 C3.1070001125335693,10.534000396728516 0.6169999837875366,12.225000381469727 -2.433000087738037,12.225000381469727 C-8.460000038146973,12.225000381469727 -10.506999969482422,8.182999610900879 -10.506999969482422,2.2769999504089355 C-10.506999969482422,2.2769999504089355 -10.506999969482422,-11.204000473022461 -10.506999969482422,-11.204000473022461 C-10.506999969482422,-12.178000450134277 -8.753999710083008,-12.1899995803833 -7.421000003814697,-12.1899995803833 C-6.396999835968018,-12.1899995803833 -4.309999942779541,-12.218000411987305 -4.309999942779541,-11.204000473022461 C-4.309999942779541,-11.204000473022461 -4.309999942779541,1.2380000352859497 -4.309999942779541,1.2380000352859497 C-4.309999942779541,4.25 -3.618000030517578,6.817999839782715 -0.6100000143051147,6.817999839782715 C1.3380000591278076,6.817999839782715 3.0899999141693115,4.943999767303467 4.328000068664551,3.437000036239624 C4.328000068664551,3.437000036239624 4.328000068664551,-11.204000473022461 4.328000068664551,-11.204000473022461 C4.328000068664551,-12.225000381469727 6.328000068664551,-12.1899995803833 7.414000034332275,-12.1899995803833 C8.444000244140625,-12.1899995803833 10.5,-12.220999717712402 10.5,-11.204000473022461 C10.5,-11.204000473022461 10.5,10.819999694824219 10.5,10.819999694824219 C10.5,10.819999694824219 10.506999969482422,10.819999694824219 10.506999969482422,10.819999694824219z"></path></g><g opacity="1" transform="matrix(1,0,0,1,144.98800659179688,17.94099998474121)"><path fill="rgb(255,255,255)" fill-opacity="1" d=" M3.5769999027252197,-13.642999649047852 C3.5769999027252197,-11.114999771118164 2.677999973297119,-10.333000183105469 -0.02199999988079071,-10.333000183105469 C-2.6679999828338623,-10.333000183105469 -3.5769999027252197,-11.01200008392334 -3.5769999027252197,-13.519000053405762 C-3.5769999027252197,-16.118999481201172 -2.628000020980835,-16.850000381469727 0.023000000044703484,-16.850000381469727 C2.5969998836517334,-16.85300064086914 3.5769999027252197,-16.191999435424805 3.5769999027252197,-13.642999649047852z M3.109999895095825,15.835000038146973 C3.109999895095825,16.851999282836914 1.0290000438690186,16.82200050354004 -0.0010000000474974513,16.82200050354004 C-1.0490000247955322,16.82200050354004 -3.111999988555908,16.84000015258789 -3.111999988555908,15.835000038146973 C-3.111999988555908,15.835000038146973 -3.111999988555908,-6.135000228881836 -3.111999988555908,-6.135000228881836 C-3.111999988555908,-7.139999866485596 -1.0709999799728394,-7.171999931335449 -0.0010000000474974513,-7.171999931335449 C1.0260000228881836,-7.171999931335449 3.109999895095825,-7.1519999504089355 3.109999895095825,-6.135000228881836 C3.109999895095825,-6.135000228881836 3.109999895095825,15.835000038146973 3.109999895095825,15.835000038146973z"></path></g><g opacity="1" transform="matrix(1,0,0,1,155.1479949951172,17.518999099731445)"><path fill="rgb(255,255,255)" fill-opacity="1" d=" M3.1110000610351562,16.257999420166016 C3.1110000610351562,17.268999099731445 1.0609999895095825,17.243999481201172 0,17.243999481201172 C-1.0829999446868896,17.243999481201172 -3.1110000610351562,17.256000518798828 -3.1110000610351562,16.257999420166016 C-3.1110000610351562,16.257999420166016 -3.1110000610351562,-16.20800018310547 -3.1110000610351562,-16.20800018310547 C-3.1110000610351562,-17.240999221801758 -1.0980000495910645,-17.268999099731445 0,-17.268999099731445 C1.0479999780654907,-17.268999099731445 3.1110000610351562,-17.256999969482422 3.1110000610351562,-16.20800018310547 C3.1110000610351562,-16.20800018310547 3.1110000610351562,16.257999420166016 3.1110000610351562,16.257999420166016z"></path></g><g opacity="1" transform="matrix(1,0,0,1,172.21600341796875,17.7549991607666)"><path fill="rgb(255,255,255)" fill-opacity="1" d=" M11.072999954223633,16.020999908447266 C11.072999954223633,17.031999588012695 9.593000411987305,17.006999969482422 8.479999542236328,17.006999969482422 C7.415999889373779,17.006999969482422 5.811999797821045,17.02899932861328 5.811999797821045,16.020999908447266 C5.811999797821045,16.020999908447266 5.811999797821045,13.57699966430664 5.811999797821045,13.57699966430664 C2.999000072479248,16.594999313354492 0.4950000047683716,17.43000030517578 -1.8880000114440918,17.43000030517578 C-8.508000373840332,17.43000030517578 -11.072999954223633,11.954999923706055 -11.072999954223633,5.308000087738037 C-11.072999954223633,-1.600000023841858 -8.321999549865723,-7.4070000648498535 -1.4450000524520874,-7.4070000648498535 C0.6019999980926514,-7.4070000648498535 2.555000066757202,-6.752999782562256 4.89900016784668,-4.445000171661377 C4.89900016784668,-4.445000171661377 4.89900016784668,-16.368999481201172 4.89900016784668,-16.368999481201172 C4.89900016784668,-17.413999557495117 6.859000205993652,-17.43000030517578 7.985000133514404,-17.43000030517578 C9.036999702453613,-17.43000030517578 11.071000099182129,-17.42099952697754 11.071000099182129,-16.368999481201172 C11.071000099182129,-16.368999481201172 11.071000099182129,16.020999908447266 11.071000099182129,16.020999908447266 C11.071000099182129,16.020999908447266 11.072999954223633,16.020999908447266 11.072999954223633,16.020999908447266z M4.9029998779296875,1.3049999475479126 C3.5910000801086426,-0.3479999899864197 1.902999997138977,-2.1510000228881836 -0.20600000023841858,-2.1510000228881836 C-3.5250000953674316,-2.1510000228881836 -4.747000217437744,1.565000057220459 -4.747000217437744,4.883999824523926 C-4.747000217437744,8.345999717712402 -3.819999933242798,12.166999816894531 -0.3269999921321869,12.166999816894531 C1.899999976158142,12.166999816894531 3.4570000171661377,10.423999786376953 4.906000137329102,8.612000465393066 C4.906000137329102,8.612000465393066 4.906000137329102,1.3040000200271606 4.906000137329102,1.3040000200271606 C4.906000137329102,1.3040000200271606 4.9029998779296875,1.3049999475479126 4.9029998779296875,1.3049999475479126z"></path></g><g opacity="1" transform="matrix(1,0,0,1,196.91299438476562,22.768999099731445)"><path fill="rgb(255,255,255)" fill-opacity="1" d=" M10.812000274658203,-0.6460000276565552 C10.812000274658203,0.6850000023841858 10.251999855041504,1.5750000476837158 8.913000106811523,1.5750000476837158 C8.913000106811523,1.5750000476837158 -4.494999885559082,1.5750000476837158 -4.494999885559082,1.5750000476837158 C-4.494999885559082,5.644999980926514 -2.5409998893737793,7.7230000495910645 1.5290000438690186,7.7230000495910645 C5.993000030517578,7.7230000495910645 7.9720001220703125,6.2230000495910645 8.986000061035156,6.2230000495910645 C9.541000366210938,6.2230000495910645 9.685999870300293,6.6539998054504395 9.739999771118164,7.247000217437744 C9.852999687194824,8.272000312805176 9.781000137329102,9.309000015258789 9.529000282287598,10.309000015258789 C9.286999702453613,10.76200008392334 9.001999855041504,10.88599967956543 8.394000053405762,11.13700008392334 C6.010000228881836,11.994000434875488 3.494999885559082,12.428000450134277 0.9620000123977661,12.420999526977539 C-7.285999774932861,12.420999526977539 -10.812999725341797,8.116000175476074 -10.812999725341797,0.24899999797344208 C-10.812999725341797,-7.375999927520752 -6.829999923706055,-12.416000366210938 0.4189999997615814,-12.416000366210938 C7.190000057220459,-12.416000366210938 10.814000129699707,-8.454999923706055 10.814000129699707,-1.6269999742507935 C10.814000129699707,-1.6269999742507935 10.812000274658203,-0.6460000276565552 10.812000274658203,-0.6460000276565552z M4.789000034332275,-2.4230000972747803 C4.918000221252441,-3.871999979019165 4.547999858856201,-5.322000026702881 3.740999937057495,-6.5329999923706055 C2.9010000228881836,-7.571000099182129 1.6039999723434448,-8.128999710083008 0.27300000190734863,-8.024999618530273 C-2.8570001125335693,-8.024999618530273 -4.357999801635742,-5.546999931335449 -4.492000102996826,-2.4200000762939453 C-4.492000102996826,-2.4200000762939453 4.789000034332275,-2.4200000762939453 4.789000034332275,-2.4200000762939453 C4.789000034332275,-2.4200000762939453 4.789000034332275,-2.4230000972747803 4.789000034332275,-2.4230000972747803z"></path></g><g opacity="1" transform="matrix(1,0,0,1,217.71099853515625,22.565000534057617)"><path fill="rgb(255,255,255)" fill-opacity="1" d=" M6.986999988555908,-7.307000160217285 C6.921999931335449,-6.572000026702881 6.831999778747559,-5.849999904632568 6.171000003814697,-5.849999904632568 C4.855999946594238,-5.849999904632568 2.871000051498413,-8.428000450134277 -0.8889999985694885,-2.5190000534057617 C-0.8889999985694885,-2.5190000534057617 -0.8889999985694885,11.208000183105469 -0.8889999985694885,11.208000183105469 C-0.8889999985694885,12.215999603271484 -2.933000087738037,12.192999839782715 -4,12.192999839782715 C-5.052000045776367,12.192999839782715 -7.111000061035156,12.210000038146973 -7.111000061035156,11.208000183105469 C-7.111000061035156,11.208000183105469 -7.111000061035156,-10.807000160217285 -7.111000061035156,-10.807000160217285 C-7.111000061035156,-11.781000137329102 -5.504000186920166,-11.793999671936035 -4.442999839782715,-11.793999671936035 C-3.381999969482422,-11.793999671936035 -1.7999999523162842,-11.793000221252441 -1.7999999523162842,-10.807000160217285 C-1.7999999523162842,-10.807000160217285 -1.7999999523162842,-8.067999839782715 -1.7999999523162842,-8.067999839782715 C-0.24300000071525574,-10.291999816894531 1.4789999723434448,-12.21500015258789 4.050000190734863,-12.21500015258789 C4.7170000076293945,-12.21500015258789 6.544000148773193,-12.031999588012695 6.826000213623047,-11.350000381469727 C7.057000160217285,-10.015000343322754 7.111000061035156,-8.656000137329102 6.986999988555908,-7.307000160217285z"></path></g><g opacity="1" transform="matrix(1,0,0,1,236.02200317382812,14.739999771118164)"><path fill="rgb(255,255,255)" fill-opacity="1" d=" M-2.496999979019165,-3.558000087738037 C-2.496999979019165,-3.2660000324249268 -2.5399999618530273,-2.7860000133514404 -2.8289999961853027,-2.7860000133514404 C-2.8289999961853027,-2.7860000133514404 -4.9629998207092285,-2.7860000133514404 -4.9629998207092285,-2.7860000133514404 C-4.9629998207092285,-2.7860000133514404 -4.9629998207092285,4.091000080108643 -4.9629998207092285,4.091000080108643 C-4.9629998207092285,4.379000186920166 -5.605000019073486,4.390999794006348 -5.88700008392334,4.390999794006348 C-6.169000148773193,4.390999794006348 -6.8420000076293945,4.375 -6.8420000076293945,4.091000080108643 C-6.8420000076293945,4.091000080108643 -6.8420000076293945,-2.7860000133514404 -6.8420000076293945,-2.7860000133514404 C-6.8420000076293945,-2.7860000133514404 -8.932999610900879,-2.7860000133514404 -8.932999610900879,-2.7860000133514404 C-9.246000289916992,-2.7860000133514404 -9.295999526977539,-3.244999885559082 -9.295999526977539,-3.558000087738037 C-9.295999526977539,-3.871000051498413 -9.258999824523926,-4.376999855041504 -8.932999610900879,-4.376999855041504 C-8.932999610900879,-4.376999855041504 -2.8329999446868896,-4.376999855041504 -2.8329999446868896,-4.376999855041504 C-2.5280001163482666,-4.376999855041504 -2.496999979019165,-3.8589999675750732 -2.496999979019165,-3.558000087738037z M9.29699993133545,4.091000080108643 C9.29699993133545,4.382999897003174 8.73900032043457,4.390999794006348 8.449999809265137,4.390999794006348 C8.16100025177002,4.390999794006348 7.603000164031982,4.381999969482422 7.603000164031982,4.091000080108643 C7.603000164031982,4.091000080108643 7.603000164031982,-2.6649999618530273 7.603000164031982,-2.6649999618530273 C7.603000164031982,-2.6649999618530273 7.572000026702881,-2.6649999618530273 7.572000026702881,-2.6649999618530273 C7.572000026702881,-2.6649999618530273 5.044000148773193,4.150000095367432 5.044000148773193,4.150000095367432 C4.985000133514404,4.380000114440918 4.374000072479248,4.392000198364258 4.135000228881836,4.392000198364258 C3.8959999084472656,4.392000198364258 3.384000062942505,4.375999927520752 3.3010001182556152,4.150000095367432 C3.3010001182556152,4.150000095367432 0.8259999752044678,-2.6649999618530273 0.8259999752044678,-2.6649999618530273 C0.8259999752044678,-2.6649999618530273 0.7950000166893005,-2.6649999618530273 0.7950000166893005,-2.6649999618530273 C0.7950000166893005,-2.6649999618530273 0.7950000166893005,4.091000080108643 0.7950000166893005,4.091000080108643 C0.7950000166893005,4.373000144958496 0.2460000067949295,4.390999794006348 -0.039000000804662704,4.390999794006348 C-0.3240000009536743,4.390999794006348 -0.9169999957084656,4.381999969482422 -0.9169999957084656,4.091000080108643 C-0.9169999957084656,4.091000080108643 -0.9169999957084656,-3.6640000343322754 -0.9169999957084656,-3.6640000343322754 C-0.9449999928474426,-4.0269999504089355 -0.6729999780654907,-4.34499979019165 -0.3089999854564667,-4.373000144958496 C-0.2849999964237213,-4.374000072479248 -0.25999999046325684,-4.375 -0.23499999940395355,-4.374000072479248 C-0.23499999940395355,-4.374000072479248 0.9139999747276306,-4.374000072479248 0.9139999747276306,-4.374000072479248 C1.7640000581741333,-4.374000072479248 2.0280001163482666,-4.073999881744385 2.2939999103546143,-3.312999963760376 C2.2939999103546143,-3.312999963760376 4.193999767303467,1.8980000019073486 4.193999767303467,1.8980000019073486 C4.193999767303467,1.8980000019073486 6.206999778747559,-3.312999963760376 6.206999778747559,-3.312999963760376 C6.5269999504089355,-4.171999931335449 6.920000076293945,-4.374000072479248 7.49399995803833,-4.374000072479248 C7.49399995803833,-4.374000072479248 8.61400032043457,-4.374000072479248 8.61400032043457,-4.374000072479248 C8.973999977111816,-4.392000198364258 9.279999732971191,-4.114999771118164 9.29800033569336,-3.755000114440918 C9.298999786376953,-3.7249999046325684 9.298999786376953,-3.694000005722046 9.295999526977539,-3.6640000343322754 C9.295999526977539,-3.6640000343322754 9.295999526977539,4.091000080108643 9.295999526977539,4.091000080108643 C9.295999526977539,4.091000080108643 9.29699993133545,4.091000080108643 9.29699993133545,4.091000080108643z"></path></g></g><g filter="url(#__lottie_element_76)" style="display: block;" transform="matrix(1,0,0,1,87.2030029296875,94.07099914550781)" opacity="1"><g opacity="1" transform="matrix(1,0,0,1,11.892999649047852,21.70199966430664)"><path fill="rgb(255,255,255)" fill-opacity="1" d=" M10.42199993133545,-2.4489998817443848 C10.42199993133545,-2.4489998817443848 -5.053999900817871,-19.90399932861328 -5.053999900817871,-19.90399932861328 C-6.363999843597412,-21.34600067138672 -8.593999862670898,-21.452999114990234 -10.03600025177002,-20.14299964904785 C-11.45300006866455,-18.856000900268555 -11.585000038146973,-16.673999786376953 -10.333000183105469,-15.22599983215332 C-10.333000183105469,-15.22599983215332 3.1389999389648438,-0.032999999821186066 3.1389999389648438,-0.032999999821186066 C3.1389999389648438,-0.032999999821186066 -10.333000183105469,15.16100025177002 -10.333000183105469,15.16100025177002 C-11.642999649047852,16.60300064086914 -11.53600025177002,18.83300018310547 -10.093999862670898,20.14299964904785 C-8.652000427246094,21.452999114990234 -6.421000003814697,21.34600067138672 -5.111999988555908,19.90399932861328 C-5.0920000076293945,19.882999420166016 -5.072999954223633,19.861000061035156 -5.053999900817871,19.839000701904297 C-5.053999900817871,19.839000701904297 10.418000221252441,2.382999897003174 10.418000221252441,2.382999897003174 C11.640999794006348,1.0049999952316284 11.642999649047852,-1.069000005722046 10.42199993133545,-2.4489998817443848z"></path></g></g><g filter="url(#__lottie_element_73)" style="display: block;" transform="matrix(1,0,0,1,107.91600036621094,93.95600128173828)" opacity="1"><g opacity="1" transform="matrix(1,0,0,1,11.902000427246094,21.71299934387207)"><path fill="rgb(255,255,255)" fill-opacity="1" d=" M-4.979000091552734,-19.81599998474121 C-6.248000144958496,-21.29400062561035 -8.47599983215332,-21.46299934387207 -9.954000473022461,-20.194000244140625 C-11.430999755859375,-18.924999237060547 -11.600000381469727,-16.697999954223633 -10.331000328063965,-15.220999717712402 C-10.312000274658203,-15.199000358581543 -10.293000221252441,-15.177000045776367 -10.27299976348877,-15.154999732971191 C-10.27299976348877,-15.154999732971191 3.1480000019073486,0.0820000022649765 3.1480000019073486,0.0820000022649765 C3.1480000019073486,0.0820000022649765 -10.37399959564209,15.229999542236328 -10.37399959564209,15.229999542236328 C-11.652999877929688,16.700000762939453 -11.496999740600586,18.92799949645996 -10.027000427246094,20.20599937438965 C-8.583999633789062,21.46299934387207 -6.401000022888184,21.33799934387207 -5.109000205993652,19.926000595092773 C-5.109000205993652,19.926000595092773 10.418999671936035,2.5220000743865967 10.418999671936035,2.5220000743865967 C11.645000457763672,1.1430000066757202 11.652999877929688,-0.9340000152587891 10.435999870300293,-2.319999933242798 C10.435999870300293,-2.319999933242798 -4.979000091552734,-19.81599998474121 -4.979000091552734,-19.81599998474121z"></path></g></g><g filter="url(#__lottie_element_70)" style="display: block;" transform="matrix(1,0,0,1,82.45800018310547,59.74699783325195)" opacity="1"><g opacity="1" transform="matrix(1,0,0,1,45.071998596191406,45.08000183105469)"><path fill="rgb(255,255,255)" fill-opacity="1" d=" M41.23500061035156,-34.854000091552734 C41.23500061035156,-34.854000091552734 37.448001861572266,-34.854000091552734 37.448001861572266,-34.854000091552734 C37.448001861572266,-34.854000091552734 32.30500030517578,-43.111000061035156 32.30500030517578,-43.111000061035156 C32.30500030517578,-43.111000061035156 32.27399826049805,-43.1609992980957 32.27399826049805,-43.1609992980957 C31.60300064086914,-44.20100021362305 30.450000762939453,-44.827999114990234 29.211999893188477,-44.82699966430664 C29.211999893188477,-44.82699966430664 -8.222000122070312,-44.82699966430664 -8.222000122070312,-44.82699966430664 C-9.454999923706055,-44.83000183105469 -10.604999542236328,-44.207000732421875 -11.277000427246094,-43.17399978637695 C-11.277000427246094,-43.17399978637695 -16.459999084472656,-34.85499954223633 -16.459999084472656,-34.85499954223633 C-16.459999084472656,-34.85499954223633 -41.29499816894531,-34.85499954223633 -41.29499816894531,-34.85499954223633 C-43.24300003051758,-34.85499954223633 -44.821998596191406,-33.2760009765625 -44.821998596191406,-31.327999114990234 C-44.821998596191406,-29.3799991607666 -43.24300003051758,-27.801000595092773 -41.29499816894531,-27.801000595092773 C-41.29499816894531,-27.801000595092773 -12.607999801635742,-27.812999725341797 -12.607999801635742,-27.812999725341797 C-11.208000183105469,-29.913000106811523 -12.416000366210938,-28.01300048828125 -6.333000183105469,-37.77299880981445 C-6.333000183105469,-37.77299880981445 27.31999969482422,-37.77299880981445 27.31999969482422,-37.77299880981445 C33.27299880981445,-28.222000122070312 32.119998931884766,-30.0310001373291 33.619998931884766,-27.799999237060547 C33.619998931884766,-27.799999237060547 37.766998291015625,-27.799999237060547 37.766998291015625,-27.799999237060547 C37.766998291015625,-27.799999237060547 37.766998291015625,41.28900146484375 37.766998291015625,41.28900146484375 C37.76300048828125,43.23699951171875 39.3390007019043,44.819000244140625 41.2869987487793,44.823001861572266 C43.23500061035156,44.82699966430664 44.81700134277344,43.250999450683594 44.82099914550781,41.303001403808594 C44.82099914550781,41.303001403808594 44.82099914550781,41.28900146484375 44.82099914550781,41.28900146484375 C44.82099914550781,41.28900146484375 44.82099914550781,-31.264999389648438 44.82099914550781,-31.264999389648438 C44.821998596191406,-33.24599838256836 43.215999603271484,-34.85300064086914 41.23500061035156,-34.854000091552734z"></path></g></g><g style="display: block;" transform="matrix(1,0,0,1,128.68299865722656,94.07699584960938)" opacity="1"><g opacity="1" transform="matrix(1,0,0,1,11.881999969482422,21.691999435424805)"><path fill="rgb(237,28,36)" fill-opacity="1" d=" M-10.039999961853027,20.149999618530273 C-11.496999740600586,18.857999801635742 -11.631999969482422,16.6299991607666 -10.34000015258789,15.17199993133545 C-10.34000015258789,15.17199993133545 3.13100004196167,-0.020999999716877937 3.13100004196167,-0.020999999716877937 C3.13100004196167,-0.020999999716877937 -10.34000015258789,-15.21500015258789 -10.34000015258789,-15.21500015258789 C-11.61400032043457,-16.68899917602539 -11.45300006866455,-18.915000915527344 -9.979000091552734,-20.18899917602539 C-8.531000137329102,-21.44099998474121 -6.348999977111816,-21.309999465942383 -5.061999797821045,-19.89299964904785 C-5.061999797821045,-19.89299964904785 10.414999961853027,-2.437999963760376 10.414999961853027,-2.437999963760376 C11.633000373840332,-1.055999994277954 11.633000373840332,1.0160000324249268 10.414999961853027,2.3980000019073486 C10.414999961853027,2.3980000019073486 -5.064000129699707,19.860000610351562 -5.064000129699707,19.860000610351562 C-6.359000205993652,21.312000274658203 -8.583999633789062,21.44099998474121 -10.039999961853027,20.149999618530273z"></path></g></g></g></svg>
