<svg xmlns="http://www.w3.org/2000/svg" viewBox="0 0 270 270" width="270" height="270"
     preserveAspectRatio="xMidYMid meet" style="width: 100%; height: 100%; transform: translate3d(0px, 0px, 0px);">
  <defs>
    <clipPath id="__lottie_element_39">
      <rect width="270" height="270" x="0" y="0"></rect>
    </clipPath>
    <filter id="__lottie_element_45" filterUnits="objectBoundingBox" x="0%" y="0%" width="100%" height="100%">
      <feColorMatrix type="matrix" color-interpolation-filters="sRGB"
                     values="0 0 0 0 0.26274511218070984 0 0 0 0 0.32156863808631897 0 0 0 0 0.3529411852359772 0 0 0 1 0"></feColorMatrix>
    </filter>
    <filter id="__lottie_element_48" filterUnits="objectBoundingBox" x="0%" y="0%" width="100%" height="100%">
      <feColorMatrix type="matrix" color-interpolation-filters="sRGB"
                     values="0 0 0 0 0.26274511218070984 0 0 0 0 0.32156863808631897 0 0 0 0 0.3529411852359772 0 0 0 1 0"></feColorMatrix>
    </filter>
    <filter id="__lottie_element_51" filterUnits="objectBoundingBox" x="0%" y="0%" width="100%" height="100%">
      <feColorMatrix type="matrix" color-interpolation-filters="sRGB"
                     values="0 0 0 0 0.26274511218070984 0 0 0 0 0.32156863808631897 0 0 0 0 0.3529411852359772 0 0 0 1 0"></feColorMatrix>
    </filter>
    <filter id="__lottie_element_54" filterUnits="objectBoundingBox" x="0%" y="0%" width="100%" height="100%">
      <feColorMatrix type="matrix" color-interpolation-filters="sRGB"
                     values="0 0 0 0 0.26274511218070984 0 0 0 0 0.32156863808631897 0 0 0 0 0.3529411852359772 0 0 0 1 0"></feColorMatrix>
    </filter>
    <filter id="__lottie_element_57" filterUnits="objectBoundingBox" x="0%" y="0%" width="100%" height="100%">
      <feColorMatrix type="matrix" color-interpolation-filters="sRGB"
                     values="0 0 0 0 0.26274511218070984 0 0 0 0 0.32156863808631897 0 0 0 0 0.3529411852359772 0 0 0 1 0"></feColorMatrix>
    </filter>
    <filter id="__lottie_element_60" filterUnits="objectBoundingBox" x="0%" y="0%" width="100%" height="100%">
      <feColorMatrix type="matrix" color-interpolation-filters="sRGB"
                     values="0 0 0 0 0.26274511218070984 0 0 0 0 0.32156863808631897 0 0 0 0 0.3529411852359772 0 0 0 1 0"></feColorMatrix>
    </filter>
    <filter id="__lottie_element_63" filterUnits="objectBoundingBox" x="0%" y="0%" width="100%" height="100%">
      <feColorMatrix type="matrix" color-interpolation-filters="sRGB"
                     values="0 0 0 0 0.26274511218070984 0 0 0 0 0.32156863808631897 0 0 0 0 0.3529411852359772 0 0 0 1 0"></feColorMatrix>
    </filter>
  </defs>
  <g clip-path="url(#__lottie_element_39)">
    <g filter="url(#__lottie_element_63)" style="display: block;"
       transform="matrix(1,0,0,1,11.750007629394531,175.6540069580078)" opacity="1">
      <g opacity="1" transform="matrix(1,0,0,1,12.064000129699707,17.827999114990234)">
        <path fill="rgb(255,255,255)" fill-opacity="1"
              d=" M11.814000129699707,11.111000061035156 C11.814000129699707,12.553000450134277 11.72599983215332,13.256999969482422 11.071999549865723,13.937000274658203 C7.90500020980835,17.243999481201172 -11.814000129699707,20.79199981689453 -11.814000129699707,0.39399999380111694 C-11.814000129699707,-9.439000129699707 -6.6620001792907715,-16.51799964904785 2.996999979019165,-16.51799964904785 C6.254000186920166,-16.51799964904785 10.46399974822998,-15.147000312805176 11.366999626159668,-13.531000137329102 C11.64900016784668,-12.71399974822998 11.765000343322754,-11.847999572753906 11.710000038146973,-10.986000061035156 C11.710000038146973,-10.0649995803833 11.710000038146973,-8.27299976348877 10.79800033569336,-8.27299976348877 C9.784000396728516,-8.27299976348877 7.964000225067139,-11.062000274658203 3.2709999084472656,-11.062000274658203 C-2.494999885559082,-11.062000274658203 -4.802999973297119,-5.7170000076293945 -4.802999973297119,0.04899999871850014 C-4.802999973297119,6.0879998207092285 -2.6480000019073486,10.961999893188477 3.440999984741211,10.961999893188477 C8.022000312805176,10.961999893188477 10.041000366210938,8.368000030517578 10.968999862670898,8.368000030517578 C11.732000350952148,8.368000030517578 11.814000129699707,9.213000297546387 11.814000129699707,11.111000061035156z"></path>
      </g>
      <g opacity="1" transform="matrix(1,0,0,1,33.04999923706055,21.43899917602539)">
        <path fill="rgb(255,255,255)" fill-opacity="1"
              d=" M7.065999984741211,-8.475000381469727 C7.065999984741211,-7.833000183105469 7.078000068664551,-6.046000003814697 6.610000133514404,-5.685999870300293 C6.054999828338623,-5.257999897003174 5.168000221252441,-6.104000091552734 3.7100000381469727,-6.104000091552734 C1.7710000276565552,-6.104000091552734 0.18299999833106995,-3.864000082015991 -0.8560000061988831,-2.2269999980926514 C-0.8560000061988831,-2.2269999980926514 -0.8560000061988831,11.49899959564209 -0.8560000061988831,11.49899959564209 C-0.8560000061988831,12.510000228881836 -2.9030001163482666,12.484000205993652 -3.9670000076293945,12.484000205993652 C-5.031000137329102,12.484000205993652 -7.078000068664551,12.503999710083008 -7.078000068664551,11.49899959564209 C-7.078000068664551,11.49899959564209 -7.078000068664551,-10.524999618530273 -7.078000068664551,-10.524999618530273 C-7.078000068664551,-11.493000030517578 -5.486999988555908,-11.510000228881836 -4.409999847412109,-11.510000228881836 C-3.368000030517578,-11.510000228881836 -1.7669999599456787,-11.517000198364258 -1.7669999599456787,-10.524999618530273 C-1.7669999599456787,-10.524999618530273 -1.7669999599456787,-7.784999847412109 -1.7669999599456787,-7.784999847412109 C0.2029999941587448,-10.597999572753906 2.1540000438690186,-12.508999824523926 5.540999889373779,-11.770999908447266 C7.010000228881836,-11.446000099182129 7.065999984741211,-11.27299976348877 7.065999984741211,-8.475000381469727z"></path>
      </g>
      <g opacity="1" transform="matrix(1,0,0,1,44.86199951171875,17.101999282836914)">
        <path fill="rgb(255,255,255)" fill-opacity="1"
              d=" M3.5769999027252197,-13.642000198364258 C3.5769999027252197,-11.11400032043457 2.677000045776367,-10.331999778747559 -0.023000000044703484,-10.331999778747559 C-2.628999948501587,-10.331999778747559 -3.5769999027252197,-10.968000411987305 -3.5769999027252197,-13.517999649047852 C-3.5769999027252197,-16.12700080871582 -2.622999906539917,-16.849000930786133 0.02199999988079071,-16.849000930786133 C2.6059999465942383,-16.851999282836914 3.5769999027252197,-16.18199920654297 3.5769999027252197,-13.642000198364258z M3.1089999675750732,15.835000038146973 C3.1089999675750732,16.851999282836914 1.0290000438690186,16.820999145507812 -0.0010000000474974513,16.820999145507812 C-1.0529999732971191,16.820999145507812 -3.11299991607666,16.836999893188477 -3.11299991607666,15.835000038146973 C-3.11299991607666,15.835000038146973 -3.11299991607666,-6.135000228881836 -3.11299991607666,-6.135000228881836 C-3.11299991607666,-7.139999866485596 -1.0709999799728394,-7.171000003814697 -0.0010000000474974513,-7.171000003814697 C1.0260000228881836,-7.171000003814697 3.1089999675750732,-7.1519999504089355 3.1089999675750732,-6.135000228881836 C3.1089999675750732,-6.135000228881836 3.1089999675750732,15.835000038146973 3.1089999675750732,15.835000038146973z"></path>
      </g>
      <g opacity="1" transform="matrix(1,0,0,1,69.4280014038086,21.742000579833984)">
        <path fill="rgb(255,255,255)" fill-opacity="1"
              d=" M17.518999099731445,11.194999694824219 C17.518999099731445,12.199999809265137 15.527000427246094,12.180999755859375 14.432000160217285,12.180999755859375 C13.359000205993652,12.180999755859375 11.321999549865723,12.220999717712402 11.321999549865723,11.194999694824219 C11.321999549865723,11.194999694824219 11.321999549865723,-1.8639999628067017 11.321999549865723,-1.8639999628067017 C11.321999549865723,-3.619999885559082 10.934000015258789,-5.617000102996826 9.383000373840332,-6.464000225067139 C6.98799991607666,-7.7729997634887695 4.790999889373779,-5.539999961853027 3.0980000495910645,-3.440000057220459 C3.0980000495910645,-3.440000057220459 3.0980000495910645,11.201000213623047 3.0980000495910645,11.201000213623047 C3.0980000495910645,12.201000213623047 1.1069999933242798,12.187000274658203 0.012000000104308128,12.187000274658203 C-1.0149999856948853,12.187000274658203 -3.0989999771118164,12.21500015258789 -3.0989999771118164,11.201000213623047 C-3.0989999771118164,11.201000213623047 -3.0989999771118164,-1.8609999418258667 -3.0989999771118164,-1.8609999418258667 C-3.0989999771118164,-3.6070001125335693 -3.486999988555908,-5.638999938964844 -5.025000095367432,-6.460999965667725 C-7.432000160217285,-7.750999927520752 -9.609999656677246,-5.567999839782715 -11.29699993133545,-3.437000036239624 C-11.29699993133545,-3.437000036239624 -11.29699993133545,11.204000473022461 -11.29699993133545,11.204000473022461 C-11.29699993133545,12.220999717712402 -13.375,12.1899995803833 -14.407999992370605,12.1899995803833 C-15.456000328063965,12.1899995803833 -17.51799964904785,12.208999633789062 -17.51799964904785,11.204000473022461 C-17.51799964904785,11.204000473022461 -17.51799964904785,-10.815999984741211 -17.51799964904785,-10.815999984741211 C-17.51799964904785,-11.784000396728516 -15.932999610900879,-11.802000045776367 -14.850000381469727,-11.802000045776367 C-13.802000045776367,-11.802000045776367 -12.208000183105469,-11.802000045776367 -12.208000183105469,-10.815999984741211 C-12.208000183105469,-10.815999984741211 -12.208000183105469,-8.272000312805176 -12.208000183105469,-8.272000312805176 C-10.17300033569336,-10.472000122070312 -7.784999847412109,-12.220999717712402 -4.776000022888184,-12.220999717712402 C-1.6430000066757202,-12.220999717712402 0.8069999814033508,-11.032999992370605 2.11299991607666,-8.197999954223633 C4.203999996185303,-10.446999549865723 6.624000072479248,-12.220999717712402 9.666999816894531,-12.220999717712402 C15.204000473022461,-12.220999717712402 17.51799964904785,-8.46500015258789 17.51799964904785,-2.8910000324249268 C17.51799964904785,-2.8910000324249268 17.51799964904785,11.197999954223633 17.51799964904785,11.197999954223633 C17.51799964904785,11.197999954223633 17.518999099731445,11.194999694824219 17.518999099731445,11.194999694824219z"></path>
      </g>
      <g opacity="1" transform="matrix(1,0,0,1,100.33799743652344,21.923999786376953)">
        <path fill="rgb(255,255,255)" fill-opacity="1"
              d=" M10.812999725341797,-0.640999972820282 C10.812999725341797,0.6899999976158142 10.251999855041504,1.5809999704360962 8.913000106811523,1.5809999704360962 C8.913000106811523,1.5809999704360962 -4.49399995803833,1.5809999704360962 -4.49399995803833,1.5809999704360962 C-4.49399995803833,5.6570000648498535 -2.5460000038146973,7.729000091552734 1.5299999713897705,7.729000091552734 C2.490000009536743,7.739999771118164 3.447999954223633,7.659999847412109 4.39300012588501,7.492000102996826 C7.26200008392334,6.946000099182129 8.236000061035156,6.2210001945495605 8.984000205993652,6.2210001945495605 C9.789999961853027,6.2210001945495605 9.774999618530273,7.21999979019165 9.774999618530273,8.270000457763672 C9.774999618530273,9.706000328063965 9.675000190734863,10.223999977111816 9.269000053405762,10.664999961853027 C8.682999610900879,11.29800033569336 4.752999782562256,12.418999671936035 0.9620000123977661,12.418999671936035 C-7.156000137329102,12.418999671936035 -10.812999725341797,8.244000434875488 -10.812999725341797,0.24699999392032623 C-10.812999725341797,-7.176000118255615 -7.004000186920166,-12.418999671936035 0.4189999997615814,-12.418999671936035 C3.4590001106262207,-12.418999671936035 6.370999813079834,-11.63599967956543 8.369000434875488,-9.343999862670898 C10.57699966430664,-6.807000160217285 10.812999725341797,-3.6530001163482666 10.812999725341797,-0.640999972820282z M4.789000034332275,-2.4170000553131104 C4.881999969482422,-5.704999923706055 3.558000087738037,-8.02299976348877 0.27300000190734863,-8.02299976348877 C-2.8469998836517334,-8.02299976348877 -4.357999801635742,-5.556000232696533 -4.491000175476074,-2.4170000553131104 C-4.491000175476074,-2.4170000553131104 4.789000034332275,-2.4170000553131104 4.789000034332275,-2.4170000553131104z"></path>
      </g>
      <g opacity="1" transform="matrix(1,0,0,1,120.15899658203125,17.87700080871582)">
        <path fill="rgb(255,255,255)" fill-opacity="1"
              d=" M12.222000122070312,-13.378999710083008 C12.222000122070312,-12.458000183105469 12.182000160217285,-10.736000061035156 11.260000228881836,-10.736000061035156 C11.260000228881836,-10.736000061035156 3.259999990463257,-10.736000061035156 3.259999990463257,-10.736000061035156 C3.259999990463257,-10.736000061035156 3.259999990463257,15.013999938964844 3.259999990463257,15.013999938964844 C3.259999990463257,16.04400062561035 1.0920000076293945,16.048999786376953 0,16.048999786376953 C-1.1230000257492065,16.048999786376953 -3.259999990463257,16.024999618530273 -3.259999990463257,15.013999938964844 C-3.259999990463257,15.013999938964844 -3.259999990463257,-10.73799991607666 -3.259999990463257,-10.73799991607666 C-3.259999990463257,-10.73799991607666 -11.260000228881836,-10.73799991607666 -11.260000228881836,-10.73799991607666 C-12.180999755859375,-10.73799991607666 -12.222000122070312,-12.439000129699707 -12.222000122070312,-13.381999969482422 C-12.222000122070312,-14.324999809265137 -12.20300006866455,-16.048999786376953 -11.260000228881836,-16.048999786376953 C-11.260000228881836,-16.048999786376953 11.255999565124512,-16.048999786376953 11.255999565124512,-16.048999786376953 C12.194000244140625,-16.045000076293945 12.222000122070312,-14.371000289916992 12.222000122070312,-13.378999710083008z"></path>
      </g>
      <g opacity="1" transform="matrix(1,0,0,1,137.5070037841797,21.719999313354492)">
        <path fill="rgb(255,255,255)" fill-opacity="1"
              d=" M7.047999858856201,-8.755999565124512 C7.047999858856201,-7.289000034332275 7.0320000648498535,-5.8429999351501465 6.183000087738037,-5.8429999351501465 C5.36899995803833,-6.0960001945495605 4.533999919891357,-6.2769999504089355 3.688999891281128,-6.386000156402588 C1.753000020980835,-6.386000156402588 0.16500000655651093,-4.150000095367432 -0.8769999742507935,-2.509000062942505 C-0.8769999742507935,-2.509000062942505 -0.8769999742507935,11.217000007629395 -0.8769999742507935,11.217000007629395 C-0.8769999742507935,12.234000205993652 -2.9549999237060547,12.20300006866455 -3.98799991607666,12.20300006866455 C-5.060999870300293,12.20300006866455 -7.098999977111816,12.211999893188477 -7.098999977111816,11.217000007629395 C-7.098999977111816,11.217000007629395 -7.098999977111816,-10.800999641418457 -7.098999977111816,-10.800999641418457 C-7.098999977111816,-11.784000396728516 -5.433000087738037,-11.786999702453613 -4.431000232696533,-11.786999702453613 C-3.3919999599456787,-11.786999702453613 -1.7879999876022339,-11.786999702453613 -1.7879999876022339,-10.800999641418457 C-1.7879999876022339,-10.800999641418457 -1.7879999876022339,-8.062000274658203 -1.7879999876022339,-8.062000274658203 C-0.2770000100135803,-10.220999717712402 1.475000023841858,-12.208999633789062 4.061999797821045,-12.208999633789062 C4.959000110626221,-12.234000205993652 5.8470001220703125,-12.029999732971191 6.64300012588501,-11.616999626159668 C7.099999904632568,-11.201000213623047 7.047999858856201,-9.829000473022461 7.047999858856201,-8.755999565124512z"></path>
      </g>
      <g opacity="1" transform="matrix(1,0,0,1,154.9759979248047,21.929000854492188)">
        <path fill="rgb(255,255,255)" fill-opacity="1"
              d=" M10.060999870300293,11.083000183105469 C10.060999870300293,12.031999588012695 8.520999908447266,11.994999885559082 7.4670000076293945,11.994999885559082 C6.189000129699707,11.994999885559082 4.923999786376953,12.01099967956543 4.923999786376953,11.083000183105469 C4.923999786376953,11.083000183105469 4.923999786376953,9.329999923706055 4.923999786376953,9.329999923706055 C3.1559998989105225,11.312000274658203 0.6190000176429749,12.437000274658203 -2.0369999408721924,12.416000366210938 C-6.710999965667725,12.416000366210938 -10.062000274658203,9.975000381469727 -10.062000274658203,5.256999969482422 C-10.062000274658203,-0.875 -4.293000221252441,-2.25 1.812000036239624,-2.25 C1.812000036239624,-2.25 3.9579999446868896,-2.25 3.9579999446868896,-2.25 C3.9579999446868896,-2.25 3.9579999446868896,-3.5840001106262207 3.9579999446868896,-3.5840001106262207 C3.9579999446868896,-6.5929999351501465 2.7300000190734863,-7.705999851226807 -0.21400000154972076,-7.705999851226807 C-2.509999990463257,-7.673999786376953 -4.755000114440918,-7.026000022888184 -6.714000225067139,-5.828999996185303 C-7.0229997634887695,-5.633999824523926 -7.374000072479248,-5.515999794006348 -7.73799991607666,-5.485000133514404 C-8.98799991607666,-5.485000133514404 -8.958000183105469,-8.35099983215332 -8.725000381469727,-9.1850004196167 C-8.425000190734863,-9.9350004196167 -7.810999870300293,-10.517000198364258 -7.046000003814697,-10.776000022888184 C-4.732999801635742,-11.85200023651123 -2.2149999141693115,-12.411999702453613 0.335999995470047,-12.416999816894531 C7.581999778747559,-12.416999816894531 10.062000274658203,-9.50100040435791 10.062000274658203,-3.7260000705718994 C10.062000274658203,-3.7260000705718994 10.060999870300293,11.083000183105469 10.060999870300293,11.083000183105469z M3.9609999656677246,1.652999997138977 C2.312000036239624,1.565000057220459 0.6579999923706055,1.6390000581741333 -0.9769999980926514,1.8760000467300415 C-2.7980000972747803,2.257999897003174 -3.990000009536743,3.194000005722046 -3.990000009536743,5.061999797821045 C-3.990000009536743,7.015999794006348 -2.634000062942505,8.02400016784668 -0.6800000071525574,8.02400016784668 C1.2740000486373901,8.02400016784668 2.6740000247955322,6.863999843597412 3.9609999656677246,5.406000137329102 C3.9609999656677246,5.406000137329102 3.9609999656677246,1.652999997138977 3.9609999656677246,1.652999997138977z"></path>
      </g>
      <g opacity="1" transform="matrix(1,0,0,1,176.82699584960938,21.937999725341797)">
        <path fill="rgb(255,255,255)" fill-opacity="1"
              d=" M8.892999649047852,7.494999885559082 C8.930000305175781,8.267000198364258 8.833999633789062,9.038000106811523 8.607999801635742,9.777000427246094 C8.506999969482422,9.95300006866455 8.378000259399414,10.111000061035156 8.22599983215332,10.244999885559082 C6.241000175476074,11.6850004196167 3.8380000591278076,12.435999870300293 1.3860000371932983,12.380000114440918 C-5.820000171661377,12.380000114440918 -9.107999801635742,7.578999996185303 -9.107999801635742,0.4059999883174896 C-9.107999801635742,-7.230999946594238 -5.434999942779541,-12.407999992370605 1.9780000448226929,-12.407999992370605 C4.006999969482422,-12.407999992370605 7.578000068664551,-11.508000373840332 8.477999687194824,-10.00100040435791 C8.878000259399414,-9.324999809265137 9.107999801635742,-5.150000095367432 7.8979997634887695,-5.150000095367432 C6.797999858856201,-5.150000095367432 5.559000015258789,-7.369999885559082 2.243000030517578,-7.369999885559082 C-1.590999960899353,-7.369999885559082 -2.744999885559082,-3.865999937057495 -2.744999885559082,-0.03799999877810478 C-2.744999885559082,3.880000114440918 -1.5880000591278076,7.197000026702881 2.316999912261963,7.197000026702881 C3.071000099182129,7.215000152587891 3.821000099182129,7.084000110626221 4.525000095367432,6.814000129699707 C6.997000217437744,5.793000221252441 7.744999885559082,4.252999782562256 8.461000442504883,4.8520002365112305 C8.883999824523926,5.198999881744385 8.892999649047852,6.952000141143799 8.892999649047852,7.494999885559082z"></path>
      </g>
      <g opacity="1" transform="matrix(1,0,0,1,197.76699829101562,21.927000045776367)">
        <path fill="rgb(255,255,255)" fill-opacity="1"
              d=" M8.779000282287598,1.5809999704360962 C8.779000282287598,1.5809999704360962 -4.627999782562256,1.5809999704360962 -4.627999782562256,1.5809999704360962 C-4.627999782562256,5.6570000648498535 -2.680000066757202,7.729000091552734 1.3960000276565552,7.729000091552734 C2.3559999465942383,7.739999771118164 3.313999891281128,7.659999847412109 4.258999824523926,7.492000102996826 C7.127999782562256,6.946000099182129 8.10200023651123,6.2210001945495605 8.850000381469727,6.2210001945495605 C9.644000053405762,6.2210001945495605 9.640999794006348,7.171999931335449 9.640999794006348,8.270000457763672 C9.640999794006348,9.711999893188477 9.541000366210938,10.223999977111816 9.135000228881836,10.664999961853027 C8.548999786376953,11.29800033569336 4.61899995803833,12.418999671936035 0.828000009059906,12.418999671936035 C-7.234000205993652,12.418999671936035 -10.946999549865723,8.307999610900879 -10.946999549865723,0.2460000067949295 C-10.946999549865723,-7.248000144958496 -7.076000213623047,-12.418999671936035 0.2849999964237213,-12.418999671936035 C7.184999942779541,-12.418999671936035 10.678999900817871,-8.319000244140625 10.678999900817871,-1.63100004196167 C10.680000305175781,-0.6320000290870667 10.946999549865723,1.5809999704360962 8.779000282287598,1.5809999704360962z M4.6570000648498535,-2.4200000762939453 C4.75,-5.704999923706055 3.4260001182556152,-8.024999618530273 0.14100000262260437,-8.024999618530273 C-2.994999885559082,-8.024999618530273 -4.493000030517578,-5.539999961853027 -4.623000144958496,-2.4200000762939453 C-4.623000144958496,-2.4200000762939453 4.6570000648498535,-2.4200000762939453 4.6570000648498535,-2.4200000762939453z"></path>
      </g>
      <g opacity="1" transform="matrix(1,0,0,1,218.46200561523438,21.722000122070312)">
        <path fill="rgb(255,255,255)" fill-opacity="1"
              d=" M6.548999786376953,-5.9670000076293945 C5.98799991607666,-5.535999774932861 5.093999862670898,-6.385000228881836 3.6489999294281006,-6.385000228881836 C1.7170000076293945,-6.385000228881836 0.13099999725818634,-4.1579999923706055 -0.9169999957084656,-2.507999897003174 C-0.9169999957084656,-2.507999897003174 -0.9169999957084656,11.217000007629395 -0.9169999957084656,11.217000007629395 C-0.9169999957084656,12.222000122070312 -2.946000099182129,12.204000473022461 -4.0279998779296875,12.204000473022461 C-5.058000087738037,12.204000473022461 -7.138999938964844,12.230999946594238 -7.138999938964844,11.217000007629395 C-7.138999938964844,11.217000007629395 -7.138999938964844,-10.803000450134277 -7.138999938964844,-10.803000450134277 C-7.138999938964844,-11.767999649047852 -5.539000034332275,-11.788000106811523 -4.4710001945495605,-11.788000106811523 C-3.4260001182556152,-11.788000106811523 -1.8279999494552612,-11.795000076293945 -1.8279999494552612,-10.803000450134277 C-1.8279999494552612,-10.803000450134277 -1.8279999494552612,-8.064000129699707 -1.8279999494552612,-8.064000129699707 C-0.2619999945163727,-10.300000190734863 1.4570000171661377,-12.210000038146973 4.021999835968018,-12.210000038146973 C4.918000221252441,-12.230999946594238 5.804999828338623,-12.027999877929688 6.603000164031982,-11.618000030517578 C6.89300012588501,-11.1899995803833 7.0279998779296875,-10.675999641418457 6.985000133514404,-10.16100025177002 C7.010000228881836,-9.432000160217285 7.138000011444092,-6.422999858856201 6.548999786376953,-5.9670000076293945z"></path>
      </g>
      <g opacity="1" transform="matrix(1,0,0,1,236.74200439453125,13.901000022888184)">
        <path fill="rgb(255,255,255)" fill-opacity="1"
              d=" M-2.497999906539917,-3.556999921798706 C-2.497999906539917,-3.265000104904175 -2.5399999618530273,-2.7860000133514404 -2.8289999961853027,-2.7860000133514404 C-2.8289999961853027,-2.7860000133514404 -4.964000225067139,-2.7860000133514404 -4.964000225067139,-2.7860000133514404 C-4.964000225067139,-2.7860000133514404 -4.964000225067139,4.0920000076293945 -4.964000225067139,4.0920000076293945 C-4.964000225067139,4.380000114440918 -5.609000205993652,4.390999794006348 -5.888000011444092,4.390999794006348 C-6.166999816894531,4.390999794006348 -6.8420000076293945,4.369999885559082 -6.8420000076293945,4.0920000076293945 C-6.8420000076293945,4.0920000076293945 -6.8420000076293945,-2.7860000133514404 -6.8420000076293945,-2.7860000133514404 C-6.8420000076293945,-2.7860000133514404 -8.934000015258789,-2.7860000133514404 -8.934000015258789,-2.7860000133514404 C-9.246999740600586,-2.7860000133514404 -9.29699993133545,-3.24399995803833 -9.29699993133545,-3.556999921798706 C-9.29699993133545,-3.885999917984009 -9.260000228881836,-4.375999927520752 -8.934000015258789,-4.375999927520752 C-8.934000015258789,-4.375999927520752 -2.8340001106262207,-4.375999927520752 -2.8340001106262207,-4.375999927520752 C-2.5269999504089355,-4.375999927520752 -2.497999906539917,-3.8580000400543213 -2.497999906539917,-3.556999921798706z M9.295999526977539,4.0920000076293945 C9.295999526977539,4.383999824523926 8.73799991607666,4.390999794006348 8.449000358581543,4.390999794006348 C8.15999984741211,4.390999794006348 7.6020002365112305,4.392000198364258 7.6020002365112305,4.0920000076293945 C7.6020002365112305,4.0920000076293945 7.6020002365112305,-2.6649999618530273 7.6020002365112305,-2.6649999618530273 C7.6020002365112305,-2.6649999618530273 7.566999912261963,-2.6649999618530273 7.566999912261963,-2.6649999618530273 C7.566999912261963,-2.6649999618530273 5.039000034332275,4.150000095367432 5.039000034332275,4.150000095367432 C4.980000019073486,4.380000114440918 4.36899995803833,4.39300012588501 4.130000114440918,4.39300012588501 C3.8910000324249268,4.39300012588501 3.378999948501587,4.373000144958496 3.2960000038146973,4.150000095367432 C3.2960000038146973,4.150000095367432 0.8209999799728394,-2.6649999618530273 0.8209999799728394,-2.6649999618530273 C0.8209999799728394,-2.6649999618530273 0.7900000214576721,-2.6649999618530273 0.7900000214576721,-2.6649999618530273 C0.7900000214576721,-2.6649999618530273 0.7900000214576721,4.0920000076293945 0.7900000214576721,4.0920000076293945 C0.7900000214576721,4.376999855041504 0.2409999966621399,4.390999794006348 -0.04399999976158142,4.390999794006348 C-0.32899999618530273,4.390999794006348 -0.921999990940094,4.382999897003174 -0.921999990940094,4.0920000076293945 C-0.921999990940094,4.0920000076293945 -0.921999990940094,-3.6630001068115234 -0.921999990940094,-3.6630001068115234 C-0.949999988079071,-4.026000022888184 -0.6779999732971191,-4.343999862670898 -0.3140000104904175,-4.372000217437744 C-0.28999999165534973,-4.373000144958496 -0.26499998569488525,-4.375 -0.23999999463558197,-4.374000072479248 C-0.23999999463558197,-4.374000072479248 0.9110000133514404,-4.374000072479248 0.9110000133514404,-4.374000072479248 C1.7580000162124634,-4.374000072479248 2.0209999084472656,-4.080999851226807 2.2909998893737793,-3.312000036239624 C2.2909998893737793,-3.312000036239624 4.190999984741211,1.8980000019073486 4.190999984741211,1.8980000019073486 C4.190999984741211,1.8980000019073486 6.203999996185303,-3.312000036239624 6.203999996185303,-3.312000036239624 C6.52400016784668,-4.171000003814697 6.914999961853027,-4.374000072479248 7.492000102996826,-4.374000072479248 C7.492000102996826,-4.374000072479248 8.611000061035156,-4.374000072479248 8.611000061035156,-4.374000072479248 C8.970000267028809,-4.39300012588501 9.277000427246094,-4.117000102996826 9.295999526977539,-3.757999897003174 C9.29800033569336,-3.7260000705718994 9.295999526977539,-3.694000005722046 9.293000221252441,-3.6630001068115234 C9.293000221252441,-3.6630001068115234 9.293000221252441,4.0920000076293945 9.293000221252441,4.0920000076293945 C9.293000221252441,4.0920000076293945 9.295999526977539,4.0920000076293945 9.295999526977539,4.0920000076293945z"></path>
      </g>
    </g>
    <g filter="url(#__lottie_element_60)" style="display: block;"
       transform="matrix(1,0,0,1,153.23500061035156,106.0300064086914)" opacity="1">
      <g opacity="1" transform="matrix(1,0,0,1,12.227999687194824,13.616000175476074)">
        <path fill="rgb(255,255,255)" fill-opacity="1"
              d=" M6.363999843597412,-2.8289999961853027 C6.363999843597412,-2.8289999961853027 6.363999843597412,-10.460000038146973 6.363999843597412,-10.460000038146973 C6.363999843597412,-12.0649995803833 5.063000202178955,-13.366000175476074 3.4579999446868896,-13.366000175476074 C1.8519999980926514,-13.366000175476074 0.5509999990463257,-12.0649995803833 0.5509999990463257,-10.460000038146973 C0.5509999990463257,-10.460000038146973 0.5509999990463257,-0.906000018119812 0.5509999990463257,-0.906000018119812 C-0.20600000023841858,-0.0729999989271164 -0.718999981880188,0.9509999752044678 -0.9319999814033508,2.055999994277954 C-0.9319999814033508,2.055999994277954 -10.151000022888184,7.556000232696533 -10.151000022888184,7.556000232696533 C-11.527999877929688,8.378000259399414 -11.977999687194824,10.161999702453613 -11.156000137329102,11.538999557495117 C-10.333999633789062,12.916000366210938 -8.550000190734863,13.366000175476074 -7.172999858856201,12.543999671936035 C-7.172999858856201,12.543999671936035 0.9010000228881836,7.7270002365112305 0.9010000228881836,7.7270002365112305 C3.38700008392334,10.067000389099121 7.298999786376953,9.949000358581543 9.637999534606934,7.4629998207092285 C11.977999687194824,4.9770002365112305 11.859999656677246,1.065000057220459 9.37399959564209,-1.2740000486373901 C8.53499984741211,-2.063999891281128 7.492000102996826,-2.6040000915527344 6.36299991607666,-2.8320000171661377 C6.36299991607666,-2.8320000171661377 6.363999843597412,-2.8289999961853027 6.363999843597412,-2.8289999961853027z"></path>
      </g>
    </g>
    <g filter="url(#__lottie_element_57)" style="display: block;"
       transform="matrix(1,0,0,1,86.33699798583984,106.03199768066406)" opacity="1">
      <g opacity="1" transform="matrix(1,0,0,1,12.154999732971191,13.64900016784668)">
        <path fill="rgb(255,255,255)" fill-opacity="1"
              d=" M10.092000007629395,7.5960001945495605 C10.092000007629395,7.5960001945495605 0.9039999842643738,2.0450000762939453 0.9039999842643738,2.0450000762939453 C0.6930000185966492,0.9330000281333923 0.17900000512599945,-0.10000000149011612 -0.5809999704360962,-0.9390000104904175 C-0.5809999704360962,-0.9390000104904175 -0.5809999704360962,-10.493000030517578 -0.5809999704360962,-10.493000030517578 C-0.5809999704360962,-12.097999572753906 -1.8830000162124634,-13.399999618530273 -3.48799991607666,-13.399999618530273 C-5.093999862670898,-13.399999618530273 -6.394999980926514,-12.097999572753906 -6.394999980926514,-10.493000030517578 C-6.394999980926514,-10.493000030517578 -6.394999980926514,-2.86299991607666 -6.394999980926514,-2.86299991607666 C-9.741000175476074,-2.187999963760376 -11.904999732971191,1.0729999542236328 -11.229999542236328,4.418000221252441 C-10.553999900817871,7.763999938964844 -7.295000076293945,9.928999900817871 -3.9489998817443848,9.253999710083008 C-2.8269999027252197,9.027000427246094 -1.7910000085830688,8.494000434875488 -0.9539999961853027,7.711999893188477 C-0.9539999961853027,7.711999893188477 7.086999893188477,12.569999694824219 7.086999893188477,12.569999694824219 C8.460000038146973,13.399999618530273 10.246000289916992,12.960000038146973 11.076000213623047,11.586999893188477 C11.906000137329102,10.21399974822998 11.46500015258789,8.428000450134277 10.092000007629395,7.5980000495910645 C10.092000007629395,7.5980000495910645 10.092000007629395,7.5960001945495605 10.092000007629395,7.5960001945495605z"></path>
      </g>
    </g>
    <g filter="url(#__lottie_element_54)" style="display: block;"
       transform="matrix(1,0,0,1,116.09100341796875,127.36699676513672)" opacity="1">
      <g opacity="1" transform="matrix(1,0,0,1,15.663999557495117,11.475000381469727)">
        <path fill="rgb(255,255,255)" fill-opacity="1"
              d=" M10.61400032043457,-3.9110000133514404 C10.61400032043457,-3.9110000133514404 4.074999809265137,-0.009999999776482582 4.074999809265137,-0.009999999776482582 C3.7139999866485596,-0.3319999873638153 3.315999984741211,-0.6110000014305115 2.8889999389648438,-0.8389999866485596 C2.8889999389648438,-0.8389999866485596 2.8889999389648438,-8.317999839782715 2.8889999389648438,-8.317999839782715 C2.8889999389648438,-9.92300033569336 1.5889999866485596,-11.225000381469727 -0.01600000075995922,-11.225000381469727 C-1.621999979019165,-11.225000381469727 -2.9230000972747803,-9.92300033569336 -2.9230000972747803,-8.317999839782715 C-2.9230000972747803,-8.317999839782715 -2.9230000972747803,-0.8389999866485596 -2.9230000972747803,-0.8389999866485596 C-3.3369998931884766,-0.6169999837875366 -3.7260000705718994,-0.34700000286102295 -4.079999923706055,-0.03799999877810478 C-4.079999923706055,-0.03799999877810478 -10.593999862670898,-3.9709999561309814 -10.593999862670898,-3.9709999561309814 C-11.967000007629395,-4.801000118255615 -13.753000259399414,-4.361000061035156 -14.583000183105469,-2.98799991607666 C-15.413000106811523,-1.6150000095367432 -14.972999572753906,0.17100000381469727 -13.600000381469727,1.0010000467300415 C-13.600000381469727,1.0010000467300415 -6.131999969482422,5.513999938964844 -6.131999969482422,5.513999938964844 C-5.638999938964844,8.888999938964844 -2.505000114440918,11.225000381469727 0.8700000047683716,10.732000350952148 C3.558000087738037,10.34000015258789 5.673999786376953,8.237000465393066 6.083000183105469,5.551000118255615 C6.083000183105469,5.551000118255615 13.583000183105469,1.0740000009536743 13.583000183105469,1.0740000009536743 C14.961000442504883,0.2529999911785126 15.413000106811523,-1.5290000438690186 14.592000007629395,-2.9079999923706055 C13.772000312805176,-4.285999774932861 11.98900032043457,-4.73799991607666 10.611000061035156,-3.9170000553131104 C10.611000061035156,-3.9170000553131104 10.61400032043457,-3.9110000133514404 10.61400032043457,-3.9110000133514404z"></path>
      </g>
    </g>
    <g filter="url(#__lottie_element_51)" style="display: block;"
       transform="matrix(1,0,0,1,115.64999389648438,59.30399703979492)" opacity="1">
      <g opacity="1" transform="matrix(1,0,0,1,16.118999481201172,8.256999969482422)">
        <path fill="rgb(255,255,255)" fill-opacity="1"
              d=" M13.871999740600586,1.628000020980835 C13.871999740600586,1.628000020980835 6.072000026702881,-2.325000047683716 6.072000026702881,-2.325000047683716 C5.551000118255615,-5.696000099182129 2.3970000743865967,-8.006999969482422 -0.9739999771118164,-7.486000061035156 C-3.6470000743865967,-7.072999954223633 -5.741000175476074,-4.968999862670898 -6.139999866485596,-2.2939999103546143 C-6.139999866485596,-2.2939999103546143 -13.913000106811523,1.6929999589920044 -13.913000106811523,1.6929999589920044 C-15.329999923706055,2.446000099182129 -15.869000434875488,4.204999923706055 -15.116000175476074,5.623000144958496 C-14.378999710083008,7.011000156402588 -12.670000076293945,7.560999870300293 -11.26099967956543,6.863999843597412 C-11.26099967956543,6.863999843597412 -4.160999774932861,3.2190001010894775 -4.160999774932861,3.2190001010894775 C-1.8079999685287476,5.343999862670898 1.7740000486373901,5.334000110626221 4.114999771118164,3.197000026702881 C4.114999771118164,3.197000026702881 11.239999771118164,6.808000087738037 11.239999771118164,6.808000087738037 C12.670000076293945,7.5329999923706055 14.418000221252441,6.961999893188477 15.144000053405762,5.5320000648498535 C15.869000434875488,4.10099983215332 15.29699993133545,2.3529999256134033 13.866999626159668,1.628000020980835 C13.866999626159668,1.628000020980835 13.871999740600586,1.628000020980835 13.871999740600586,1.628000020980835z"></path>
      </g>
    </g>
    <g filter="url(#__lottie_element_48)" style="display: block;"
       transform="matrix(1,0,0,1,86.14100646972656,74.26899719238281)" opacity="1">
      <g opacity="1" transform="matrix(1,0,0,1,12.505000114440918,13.20199966430664)">
        <path fill="rgb(255,255,255)" fill-opacity="1"
              d=" M10.265999794006348,0.6069999933242798 C10.265999794006348,0.6069999933242798 2.73799991607666,-3.2360000610351562 2.73799991607666,-3.2360000610351562 C2.73799991607666,-3.2360000610351562 10.23799991607666,-7.084000110626221 10.23799991607666,-7.084000110626221 C11.654999732971191,-7.836999893188477 12.194000244140625,-9.595999717712402 11.440999984741211,-11.013999938964844 C10.704000473022461,-12.402000427246094 8.994999885559082,-12.95199966430664 7.585999965667725,-12.255000114440918 C7.585999965667725,-12.255000114440918 -0.6150000095367432,-8.055000305175781 -0.6150000095367432,-8.055000305175781 C-2.822000026702881,-10.65999984741211 -6.7220001220703125,-10.982999801635742 -9.32699966430664,-8.774999618530273 C-11.932000160217285,-6.567999839782715 -12.255000114440918,-2.6679999828338623 -10.04800033569336,-0.06400000303983688 C-9.14900016784668,0.9980000257492065 -7.918000221252441,1.7259999513626099 -6.554999828338623,2.000999927520752 C-6.554999828338623,2.000999927520752 -6.554999828338623,10.04699993133545 -6.554999828338623,10.04699993133545 C-6.554999828338623,11.652000427246094 -5.252999782562256,12.95199966430664 -3.6480000019073486,12.95199966430664 C-2.0420000553131104,12.95199966430664 -0.7419999837875366,11.652000427246094 -0.7419999837875366,10.04699993133545 C-0.7419999837875366,10.04699993133545 -0.7419999837875366,1.5110000371932983 -0.7419999837875366,1.5110000371932983 C-0.7419999837875366,1.5110000371932983 7.618000030517578,5.7789998054504395 7.618000030517578,5.7789998054504395 C9.04699993133545,6.507999897003174 10.795999526977539,5.940999984741211 11.524999618530273,4.51200008392334 C12.253999710083008,3.0829999446868896 11.687000274658203,1.3339999914169312 10.258000373840332,0.6050000190734863 C10.258000373840332,0.6050000190734863 10.265999794006348,0.6069999933242798 10.265999794006348,0.6069999933242798z"></path>
      </g>
    </g>
    <g filter="url(#__lottie_element_45)" style="display: block;"
       transform="matrix(1,0,0,1,152.70700073242188,74.26599884033203)" opacity="1">
      <g opacity="1" transform="matrix(1,0,0,1,12.439000129699707,13.204999923706055)">
        <path fill="rgb(255,255,255)" fill-opacity="1"
              d=" M-7.534999847412109,5.724999904632568 C-7.534999847412109,5.724999904632568 0.8650000095367432,1.4880000352859497 0.8650000095367432,1.4880000352859497 C0.8650000095367432,1.4880000352859497 0.8650000095367432,10.048999786376953 0.8650000095367432,10.048999786376953 C0.8650000095367432,11.654000282287598 2.1659998893737793,12.954999923706055 3.7709999084472656,12.954999923706055 C5.376999855041504,12.954999923706055 6.677999973297119,11.654000282287598 6.677999973297119,10.048999786376953 C6.677999973297119,10.048999786376953 6.677999973297119,2.003000020980835 6.677999973297119,2.003000020980835 C10.024999618530273,1.3270000219345093 12.189000129699707,-1.934000015258789 11.512999534606934,-5.281000137329102 C10.836999893188477,-8.628000259399414 7.576000213623047,-10.791999816894531 4.229000091552734,-10.116000175476074 C2.8580000400543213,-9.83899974822998 1.621000051498413,-9.104999542236328 0.7210000157356262,-8.034000396728516 C0.7210000157356262,-8.034000396728516 -7.501999855041504,-12.199999809265137 -7.501999855041504,-12.199999809265137 C-8.918000221252441,-12.954999923706055 -10.678000450134277,-12.420000076293945 -11.434000015258789,-11.003000259399414 C-12.189000129699707,-9.586999893188477 -11.652999877929688,-7.827000141143799 -10.237000465393066,-7.072000026702881 C-10.201000213623047,-7.052999973297119 -10.164999961853027,-7.033999919891357 -10.128999710083008,-7.017000198364258 C-10.128999710083008,-7.017000198364258 -2.6689999103546143,-3.2360000610351562 -2.6689999103546143,-3.2360000610351562 C-2.6689999103546143,-3.2360000610351562 -10.154000282287598,0.5389999747276306 -10.154000282287598,0.5389999747276306 C-11.586000442504883,1.2610000371932983 -12.161999702453613,3.006999969482422 -11.439000129699707,4.439000129699707 C-10.717000007629395,5.872000217437744 -8.970999717712402,6.447000026702881 -7.539000034332275,5.724999904632568 C-7.539000034332275,5.724999904632568 -7.534999847412109,5.724999904632568 -7.534999847412109,5.724999904632568z"></path>
      </g>
    </g>
    <g style="display: block;" transform="matrix(1,0,0,1,115.58999633789062,92.65699768066406)" opacity="1">
      <g opacity="1" transform="matrix(1,0,0,1,16.166000366210938,13.812000274658203)">
        <path fill="rgb(237,28,36)" fill-opacity="1"
              d=" M15.194000244140625,-11.14799976348877 C14.473999977111816,-12.579000473022461 12.730999946594238,-13.154000282287598 11.300000190734863,-12.434000015258789 C11.29800033569336,-12.432999610900879 11.295999526977539,-12.432999610900879 11.293999671936035,-12.432000160217285 C11.293999671936035,-12.432000160217285 6.170000076293945,-9.847999572753906 6.170000076293945,-9.847999572753906 C3.125,-13.262999534606934 -2.1110000610351562,-13.562000274658203 -5.526000022888184,-10.517999649047852 C-5.751999855041504,-10.315999984741211 -5.9670000076293945,-10.102999687194824 -6.169000148773193,-9.878000259399414 C-6.169000148773193,-9.878000259399414 -11.277999877929688,-12.48799991607666 -11.277999877929688,-12.48799991607666 C-12.706999778747559,-13.218000411987305 -14.456999778747559,-12.649999618530273 -15.185999870300293,-11.220999717712402 C-15.916000366210938,-9.793000221252441 -15.350000381469727,-8.043000221252441 -13.920999526977539,-7.313000202178955 C-13.920999526977539,-7.313000202178955 -8.321000099182129,-4.453999996185303 -8.321000099182129,-4.453999996185303 C-8.321000099182129,-4.4039998054504395 -8.32699966430664,-4.354000091552734 -8.32699966430664,-4.304999828338623 C-8.324999809265137,-0.8360000252723694 -6.168000221252441,2.2679998874664307 -2.9170000553131104,3.4790000915527344 C-2.9170000553131104,3.4790000915527344 -2.9170000553131104,10.656000137329102 -2.9170000553131104,10.656000137329102 C-2.9170000553131104,12.26099967956543 -1.6160000562667847,13.562000274658203 -0.009999999776482582,13.562000274658203 C1.5950000286102295,13.562000274658203 2.8959999084472656,12.26099967956543 2.8959999084472656,10.656000137329102 C2.8959999084472656,10.656000137329102 2.8959999084472656,3.4790000915527344 2.8959999084472656,3.4790000915527344 C6.1479997634887695,2.2690000534057617 8.305000305175781,-0.8349999785423279 8.305999755859375,-4.304999828338623 C8.305999755859375,-4.3420000076293945 8.300000190734863,-4.375999927520752 8.300000190734863,-4.409999847412109 C8.300000190734863,-4.409999847412109 13.916999816894531,-7.242000102996826 13.916999816894531,-7.242000102996826 C15.345000267028809,-7.96999979019165 15.916000366210938,-9.715999603271484 15.194000244140625,-11.14799976348877z"></path>
      </g>
    </g>
  </g>
</svg>
