<svg xmlns="http://www.w3.org/2000/svg" viewBox="0 0 350 350" width="350" height="350" preserveAspectRatio="xMidYMid meet" style="width: 100%; height: 100%; transform: translate3d(0px, 0px, 0px);"><defs><clipPath id="__lottie_element_80"><rect width="350" height="350" x="0" y="0"></rect></clipPath><filter id="__lottie_element_86" filterUnits="objectBoundingBox" x="0%" y="0%" width="100%" height="100%"><feColorMatrix type="matrix" color-interpolation-filters="sRGB" values="0 0 0 0 0.26274511218070984 0 0 0 0 0.32156863808631897 0 0 0 0 0.3529411852359772 0 0 0 1 0"></feColorMatrix></filter><filter id="__lottie_element_89" filterUnits="objectBoundingBox" x="0%" y="0%" width="100%" height="100%"><feColorMatrix type="matrix" color-interpolation-filters="sRGB" values="0 0 0 0 0.26274511218070984 0 0 0 0 0.32156863808631897 0 0 0 0 0.3529411852359772 0 0 0 1 0"></feColorMatrix></filter><filter id="__lottie_element_92" filterUnits="objectBoundingBox" x="0%" y="0%" width="100%" height="100%"><feColorMatrix type="matrix" color-interpolation-filters="sRGB" values="0 0 0 0 0.26274511218070984 0 0 0 0 0.32156863808631897 0 0 0 0 0.3529411852359772 0 0 0 1 0"></feColorMatrix></filter><filter id="__lottie_element_95" filterUnits="objectBoundingBox" x="0%" y="0%" width="100%" height="100%"><feColorMatrix type="matrix" color-interpolation-filters="sRGB" values="0 0 0 0 0.26274511218070984 0 0 0 0 0.32156863808631897 0 0 0 0 0.3529411852359772 0 0 0 1 0"></feColorMatrix></filter></defs><g clip-path="url(#__lottie_element_80)"><g filter="url(#__lottie_element_95)" style="display: block;" transform="matrix(1,0,0,1,11.649993896484375,217.10501098632812)" opacity="1"><g opacity="1" transform="matrix(1,0,0,1,12.399999618530273,16.399999618530273)"><path fill="rgb(255,255,255)" fill-opacity="1" d=" M11.649999618530273,15.550000190734863 C11.350000381469727,16.149999618530273 8.949999809265137,16.049999237060547 8.149999618530273,16.049999237060547 C5.650000095367432,16.049999237060547 5.050000190734863,15.949999809265137 4.75,14.949999809265137 C1.350000023841858,6.550000190734863 0.75,4.050000190734863 -1.649999976158142,3.1500000953674316 C-2.6500000953674316,2.75 -3.6500000953674316,2.8499999046325684 -5.550000190734863,2.8499999046325684 C-5.550000190734863,2.8499999046325684 -5.550000190734863,15.050000190734863 -5.550000190734863,15.050000190734863 C-5.550000190734863,16.049999237060547 -7.75,16.049999237060547 -8.850000381469727,16.049999237060547 C-9.949999809265137,16.049999237060547 -12.050000190734863,16.049999237060547 -12.050000190734863,15.050000190734863 C-12.050000190734863,15.050000190734863 -12.050000190734863,-14.050000190734863 -12.050000190734863,-14.050000190734863 C-12.149999618530273,-15.050000190734863 -11.449999809265137,-15.949999809265137 -10.550000190734863,-16.049999237060547 C-10.550000190734863,-16.049999237060547 -10.149999618530273,-16.049999237060547 -10.149999618530273,-16.049999237060547 C-10.149999618530273,-16.049999237060547 -1.850000023841858,-16.049999237060547 -1.850000023841858,-16.049999237060547 C4.949999809265137,-16.149999618530273 10.050000190734863,-14.050000190734863 10.050000190734863,-7.349999904632568 C10.050000190734863,-3.049999952316284 7.75,-0.25 3.8499999046325684,0.949999988079071 C4.849999904632568,1.4500000476837158 5.75,2.1500000953674316 6.349999904632568,2.950000047683716 C7.150000095367432,4.050000190734863 7.849999904632568,5.349999904632568 8.350000381469727,6.650000095367432 C11.149999618530273,13.25 12.050000190734863,14.75 11.649999618530273,15.550000190734863z M3.3499999046325684,-6.650000095367432 C3.3499999046325684,-9.550000190734863 1.75,-10.75 -0.8500000238418579,-11.050000190734863 C-1.649999976158142,-11.149999618530273 -2.549999952316284,-11.149999618530273 -5.550000190734863,-11.149999618530273 C-5.550000190734863,-11.149999618530273 -5.550000190734863,-2.049999952316284 -5.550000190734863,-2.049999952316284 C-5.550000190734863,-2.049999952316284 -2.25,-2.049999952316284 -2.25,-2.049999952316284 C1.0499999523162842,-2.049999952316284 3.3499999046325684,-3.549999952316284 3.3499999046325684,-6.650000095367432z"></path></g><g opacity="1" transform="matrix(1,0,0,1,35.599998474121094,20.472999572753906)"><path fill="rgb(255,255,255)" fill-opacity="1" d=" M10.850000381469727,-0.7229999899864197 C10.850000381469727,0.5770000219345093 10.25,1.4769999980926514 8.949999809265137,1.4769999980926514 C8.949999809265137,1.4769999980926514 -4.550000190734863,1.4769999980926514 -4.550000190734863,1.4769999980926514 C-4.550000190734863,5.577000141143799 -2.549999952316284,7.677999973297119 1.4500000476837158,7.677999973297119 C2.450000047683716,7.677999973297119 3.3499999046325684,7.578000068664551 4.349999904632568,7.478000164031982 C7.25,6.978000164031982 8.25,6.177999973297119 8.949999809265137,6.177999973297119 C9.75,6.177999973297119 9.75,7.177000045776367 9.75,8.277000427246094 C9.75,9.677000045776367 9.649999618530273,10.277999877929688 9.25,10.678000450134277 C8.649999618530273,11.277999877929688 4.75,12.477999687194824 0.949999988079071,12.477999687194824 C-7.150000095367432,12.477999687194824 -10.850000381469727,8.376999855041504 -10.850000381469727,0.2770000100135803 C-10.850000381469727,-7.322999954223633 -6.949999809265137,-12.42300033569336 0.44999998807907104,-12.42300033569336 C3.549999952316284,-12.42300033569336 6.449999809265137,-11.621999740600586 8.449999809265137,-9.321999549865723 C10.649999618530273,-6.921999931335449 10.850000381469727,-3.7230000495910645 10.850000381469727,-0.7229999899864197z M4.849999904632568,-2.4230000972747803 C4.949999809265137,-5.7230000495910645 3.6500000953674316,-8.02299976348877 0.3499999940395355,-8.02299976348877 C-2.75,-8.02299976348877 -4.349999904632568,-5.5229997634887695 -4.449999809265137,-2.4230000972747803 C-4.449999809265137,-2.4230000972747803 4.849999904632568,-2.4230000972747803 4.849999904632568,-2.4230000972747803z"></path></g><g opacity="1" transform="matrix(1,0,0,1,56.45000076293945,20.42300033569336)"><path fill="rgb(255,255,255)" fill-opacity="1" d=" M8.600000381469727,4.827000141143799 C8.600000381469727,10.126999855041504 4.300000190734863,12.527000427246094 -1,12.527000427246094 C-3,12.527000427246094 -5,12.126999855041504 -6.900000095367432,11.32699966430664 C-7.199999809265137,11.22700023651123 -7.5,11.027999877929688 -7.800000190734863,10.727999687194824 C-8.600000381469727,9.928000450134277 -8.5,6.427000045776367 -7.900000095367432,6.0269999504089355 C-7,5.5269999504089355 -5.099999904632568,7.927999973297119 -1.2000000476837158,7.927999973297119 C0.699999988079071,7.927999973297119 2.4000000953674316,7.2270002365112305 2.4000000953674316,5.327000141143799 C2.4000000953674316,3.2269999980926514 -0.6000000238418579,2.628000020980835 -2.9000000953674316,1.628000020980835 C-6.199999809265137,0.2280000001192093 -8.199999809265137,-1.5720000267028809 -8.199999809265137,-5.271999835968018 C-8.199999809265137,-10.071999549865723 -4.099999904632568,-12.472999572753906 0.800000011920929,-12.472999572753906 C2.4000000953674316,-12.472999572753906 6.400000095367432,-11.873000144958496 7,-10.67300033569336 C7.300000190734863,-10.072999954223633 7.5,-6.872000217437744 6.900000095367432,-6.572000026702881 C6.099999904632568,-6.072000026702881 4.5,-8.071999549865723 0.8999999761581421,-8.071999549865723 C-0.800000011920929,-8.071999549865723 -2.4000000953674316,-7.4730000495910645 -2.4000000953674316,-5.672999858856201 C-2.4000000953674316,-3.572999954223633 0.6000000238418579,-2.9730000495910645 3,-1.9730000495910645 C6.400000095367432,-0.6729999780654907 8.600000381469727,1.2269999980926514 8.600000381469727,4.827000141143799z"></path></g><g opacity="1" transform="matrix(1,0,0,1,78.19999694824219,20.42300033569336)"><path fill="rgb(255,255,255)" fill-opacity="1" d=" M11.850000381469727,-0.17299999296665192 C11.850000381469727,7.626999855041504 7.650000095367432,12.527000427246094 -0.25,12.527000427246094 C-7.449999809265137,12.527000427246094 -11.850000381469727,8.72700023651123 -11.850000381469727,0.3269999921321869 C-11.850000381469727,-7.4730000495910645 -7.550000190734863,-12.371999740600586 0.25,-12.371999740600586 C8.25,-12.472000122070312 11.850000381469727,-8.072999954223633 11.850000381469727,-0.17299999296665192z M5.449999809265137,0.027000000700354576 C5.449999809265137,-4.172999858856201 4.25,-7.572000026702881 0.05000000074505806,-7.572000026702881 C-4.050000190734863,-7.572000026702881 -5.449999809265137,-4.171999931335449 -5.449999809265137,-0.07199999690055847 C-5.449999809265137,4.127999782562256 -4.25,7.427999973297119 -0.05000000074505806,7.427999973297119 C4.050000190734863,7.5279998779296875 5.449999809265137,4.126999855041504 5.449999809265137,0.027000000700354576z"></path></g><g opacity="1" transform="matrix(1,0,0,1,102.94999694824219,20.549999237060547)"><path fill="rgb(255,255,255)" fill-opacity="1" d=" M10.699999809265137,10.899999618530273 C10.699999809265137,11.899999618530273 9,11.899999618530273 8,11.899999618530273 C7.300000190734863,11.899999618530273 5.800000190734863,11.899999618530273 5.400000095367432,11.300000190734863 C5.199999809265137,11.100000381469727 5.300000190734863,11.100000381469727 5.300000190734863,8.300000190734863 C3.200000047683716,10.600000381469727 0.699999988079071,12.300000190734863 -2.4000000953674316,12.300000190734863 C-6.699999809265137,12.300000190734863 -9.199999809265137,10.100000381469727 -10.100000381469727,6.5 C-10.699999809265137,4.199999809265137 -10.5,2.9000000953674316 -10.5,-11.300000190734863 C-10.5,-12.300000190734863 -8.699999809265137,-12.300000190734863 -7.400000095367432,-12.300000190734863 C-6.400000095367432,-12.300000190734863 -4.300000190734863,-12.300000190734863 -4.300000190734863,-11.300000190734863 C-4.300000190734863,-11.300000190734863 -4.300000190734863,1.2000000476837158 -4.300000190734863,1.2000000476837158 C-4.300000190734863,4.199999809265137 -3.5999999046325684,6.800000190734863 -0.6000000238418579,6.800000190734863 C1.399999976158142,6.800000190734863 3.0999999046325684,4.900000095367432 4.400000095367432,3.4000000953674316 C4.400000095367432,3.4000000953674316 4.400000095367432,-11.199999809265137 4.400000095367432,-11.199999809265137 C4.400000095367432,-12.199999809265137 6.300000190734863,-12.199999809265137 7.5,-12.199999809265137 C8.5,-12.199999809265137 10.600000381469727,-12.199999809265137 10.600000381469727,-11.199999809265137 C10.600000381469727,-11.199999809265137 10.699999809265137,10.899999618530273 10.699999809265137,10.899999618530273z"></path></g><g opacity="1" transform="matrix(1,0,0,1,124.8499984741211,20.200000762939453)"><path fill="rgb(255,255,255)" fill-opacity="1" d=" M6.5,-5.949999809265137 C5.900000095367432,-5.550000190734863 5,-6.349999904632568 3.5999999046325684,-6.349999904632568 C1.7000000476837158,-6.349999904632568 0.10000000149011612,-4.150000095367432 -1,-2.450000047683716 C-1,-2.450000047683716 -1,11.350000381469727 -1,11.350000381469727 C-1,12.350000381469727 -3.0999999046325684,12.350000381469727 -4.099999904632568,12.350000381469727 C-5.199999809265137,12.350000381469727 -7.199999809265137,12.350000381469727 -7.199999809265137,11.350000381469727 C-7.199999809265137,11.350000381469727 -7.199999809265137,-10.850000381469727 -7.199999809265137,-10.850000381469727 C-7.199999809265137,-11.850000381469727 -5.599999904632568,-11.850000381469727 -4.5,-11.850000381469727 C-3.5,-11.850000381469727 -1.7999999523162842,-11.850000381469727 -1.7999999523162842,-10.850000381469727 C-1.7999999523162842,-10.850000381469727 -1.7999999523162842,-8.149999618530273 -1.7999999523162842,-8.149999618530273 C-0.20000000298023224,-10.350000381469727 1.5,-12.350000381469727 4.099999904632568,-12.350000381469727 C4.800000190734863,-12.350000381469727 6.599999904632568,-12.149999618530273 6.900000095367432,-11.449999809265137 C7,-10.75 7.199999809265137,-6.449999809265137 6.5,-5.949999809265137z"></path></g><g opacity="1" transform="matrix(1,0,0,1,141.35000610351562,20.399999618530273)"><path fill="rgb(255,255,255)" fill-opacity="1" d=" M8.699999809265137,9.850000381469727 C8.300000190734863,10.649999618530273 6.5,11.449999809265137 5.699999809265137,11.75 C4.300000190734863,12.25 2.9000000953674316,12.449999809265137 1.5,12.449999809265137 C-5.699999809265137,12.449999809265137 -9,7.75 -9,0.44999998807907104 C-9,-7.25 -5.300000190734863,-12.449999809265137 2.0999999046325684,-12.449999809265137 C4.099999904632568,-12.449999809265137 7.699999809265137,-11.550000190734863 8.600000381469727,-10.050000190734863 C8.800000190734863,-9.350000381469727 9,-8.550000190734863 8.899999618530273,-7.75 C8.899999618530273,-6.949999809265137 8.899999618530273,-5.150000095367432 8,-5.150000095367432 C6.900000095367432,-5.150000095367432 5.599999904632568,-7.349999904632568 2.299999952316284,-7.349999904632568 C-1.5,-7.349999904632568 -2.700000047683716,-3.8499999046325684 -2.700000047683716,0.05000000074505806 C-2.700000047683716,3.950000047683716 -1.5,7.349999904632568 2.4000000953674316,7.349999904632568 C3.9000000953674316,7.349999904632568 5.300000190734863,7.050000190734863 7.400000095367432,5.25 C7.599999904632568,5.050000190734863 7.900000095367432,4.949999809265137 8.199999809265137,4.849999904632568 C8.800000190734863,4.849999904632568 8.899999618530273,5.449999809265137 8.899999618530273,6.25 C9,7.449999809265137 9,8.649999618530273 8.699999809265137,9.850000381469727z"></path></g><g opacity="1" transform="matrix(1,0,0,1,162.35000610351562,20.399999618530273)"><path fill="rgb(255,255,255)" fill-opacity="1" d=" M10.300000190734863,1.0499999523162842 C9.899999618530273,1.4500000476837158 9.399999618530273,1.649999976158142 8.899999618530273,1.5499999523162842 C8.899999618530273,1.5499999523162842 -4.599999904632568,1.5499999523162842 -4.599999904632568,1.5499999523162842 C-4.599999904632568,5.650000095367432 -2.5999999046325684,7.75 1.399999976158142,7.75 C6.5,7.75 8.399999618530273,5.849999904632568 9.300000190734863,6.349999904632568 C9.899999618530273,6.75 9.800000190734863,9.75 9.5,10.350000381469727 C9.300000190734863,10.850000381469727 9,10.949999809265137 8.399999618530273,11.149999618530273 C6,12.050000190734863 3.5,12.449999809265137 0.8999999761581421,12.449999809265137 C-7.300000190734863,12.449999809265137 -10.899999618530273,8.25 -10.899999618530273,0.25 C-10.899999618530273,-7.150000095367432 -7.099999904632568,-12.449999809265137 0.4000000059604645,-12.449999809265137 C7.400000095367432,-12.449999809265137 10.800000190734863,-8.350000381469727 10.800000190734863,-1.649999976158142 C10.800000190734863,-0.6499999761581421 10.899999618530273,0.44999998807907104 10.300000190734863,1.0499999523162842z M4.699999809265137,-2.3499999046325684 C4.800000190734863,-5.650000095367432 3.5,-7.949999809265137 0.20000000298023224,-7.949999809265137 C-2.9000000953674316,-7.949999809265137 -4.400000095367432,-5.449999809265137 -4.599999904632568,-2.3499999046325684 C-4.599999904632568,-2.3499999046325684 4.699999809265137,-2.3499999046325684 4.699999809265137,-2.3499999046325684z"></path></g><g opacity="1" transform="matrix(1,0,0,1,188.4499969482422,16.399999618530273)"><path fill="rgb(255,255,255)" fill-opacity="1" d=" M11.699999809265137,15.550000190734863 C11.399999618530273,16.149999618530273 9.100000381469727,16.049999237060547 8.199999809265137,16.049999237060547 C5.900000095367432,16.049999237060547 5.099999904632568,15.949999809265137 4.800000190734863,14.949999809265137 C2,7.949999809265137 1.7999999523162842,7.25 0.8999999761581421,5.650000095367432 C-0.800000011920929,2.549999952316284 -2.5999999046325684,2.8499999046325684 -5.5,2.8499999046325684 C-5.5,2.8499999046325684 -5.5,15.050000190734863 -5.5,15.050000190734863 C-5.5,16.049999237060547 -7.699999809265137,16.049999237060547 -8.800000190734863,16.049999237060547 C-9.899999618530273,16.049999237060547 -12,16.049999237060547 -12,15.050000190734863 C-12,15.050000190734863 -12,-14.050000190734863 -12,-14.050000190734863 C-12.100000381469727,-15.050000190734863 -11.399999618530273,-15.949999809265137 -10.5,-16.049999237060547 C-10.5,-16.049999237060547 -10.100000381469727,-16.049999237060547 -10.100000381469727,-16.049999237060547 C-1,-16.049999237060547 -0.30000001192092896,-16.149999618530273 1.7999999523162842,-15.850000381469727 C6.900000095367432,-15.25 10.100000381469727,-12.350000381469727 10.100000381469727,-7.25 C10.100000381469727,-2.950000047683716 7.800000190734863,-0.15000000596046448 3.9000000953674316,1.0499999523162842 C6.199999809265137,2.1500000953674316 7.400000095367432,4.25 8.5,6.75 C11.300000190734863,13.350000381469727 12.100000381469727,14.75 11.699999809265137,15.550000190734863z M3.4000000953674316,-6.650000095367432 C3.4000000953674316,-9.550000190734863 1.7999999523162842,-10.75 -0.800000011920929,-11.050000190734863 C-1.600000023841858,-11.149999618530273 -2.5,-11.149999618530273 -5.5,-11.149999618530273 C-5.5,-11.149999618530273 -5.5,-2.049999952316284 -5.5,-2.049999952316284 C-2.5999999046325684,-2.049999952316284 3.4000000953674316,-1.350000023841858 3.4000000953674316,-6.650000095367432z"></path></g><g opacity="1" transform="matrix(1,0,0,1,212.60000610351562,20.42300033569336)"><path fill="rgb(255,255,255)" fill-opacity="1" d=" M11.850000381469727,-0.17299999296665192 C11.850000381469727,7.626999855041504 7.650000095367432,12.527000427246094 -0.25,12.527000427246094 C-7.650000095367432,12.527000427246094 -11.850000381469727,8.527000427246094 -11.850000381469727,0.3269999921321869 C-11.850000381469727,-7.4730000495910645 -7.650000095367432,-12.371999740600586 0.25,-12.371999740600586 C8.149999618530273,-12.472000122070312 11.850000381469727,-8.17300033569336 11.850000381469727,-0.17299999296665192z M5.449999809265137,0.027000000700354576 C5.449999809265137,-4.172999858856201 4.25,-7.572000026702881 0.05000000074505806,-7.572000026702881 C-4.050000190734863,-7.572000026702881 -5.449999809265137,-4.171999931335449 -5.449999809265137,-0.07199999690055847 C-5.449999809265137,4.127999782562256 -4.25,7.427999973297119 -0.05000000074505806,7.427999973297119 C4.150000095367432,7.5279998779296875 5.449999809265137,4.2270002365112305 5.449999809265137,0.027000000700354576z"></path></g><g opacity="1" transform="matrix(1,0,0,1,237.5500030517578,20.600000381469727)"><path fill="rgb(255,255,255)" fill-opacity="1" d=" M10.600000381469727,10.850000381469727 C10.600000381469727,11.850000381469727 8.899999618530273,11.850000381469727 7.900000095367432,11.850000381469727 C6.900000095367432,11.850000381469727 5.199999809265137,11.850000381469727 5.199999809265137,10.850000381469727 C5.199999809265137,10.850000381469727 5.199999809265137,8.25 5.199999809265137,8.25 C3.0999999046325684,10.550000190734863 0.6000000238418579,12.25 -2.5,12.25 C-8.5,12.25 -10.600000381469727,8.149999618530273 -10.600000381469727,2.25 C-10.600000381469727,2.25 -10.600000381469727,-11.25 -10.600000381469727,-11.25 C-10.600000381469727,-12.25 -8.800000190734863,-12.25 -7.5,-12.25 C-6.5,-12.25 -4.400000095367432,-12.25 -4.400000095367432,-11.25 C-4.400000095367432,-11.25 -4.400000095367432,1.25 -4.400000095367432,1.25 C-4.400000095367432,4.25 -3.700000047683716,6.849999904632568 -0.699999988079071,6.849999904632568 C1.2999999523162842,6.849999904632568 3,4.949999809265137 4.300000190734863,3.450000047683716 C4.300000190734863,3.450000047683716 4.300000190734863,-11.25 4.300000190734863,-11.25 C4.300000190734863,-12.25 6.300000190734863,-12.25 7.400000095367432,-12.25 C8.5,-12.25 10.5,-12.25 10.5,-11.25 C10.5,-11.25 10.600000381469727,10.850000381469727 10.600000381469727,10.850000381469727z"></path></g><g opacity="1" transform="matrix(1,0,0,1,257.6499938964844,17.649999618530273)"><path fill="rgb(255,255,255)" fill-opacity="1" d=" M7.199999809265137,14.100000381469727 C6.5,14.899999618530273 4.099999904632568,15.100000381469727 2.9000000953674316,15.100000381469727 C-2.299999952316284,15.100000381469727 -4.300000190734863,12.399999618530273 -4.300000190734863,7.199999809265137 C-4.300000190734863,7.199999809265137 -4.300000190734863,-4.099999904632568 -4.300000190734863,-4.099999904632568 C-4.300000190734863,-4.099999904632568 -6.900000095367432,-4.099999904632568 -6.900000095367432,-4.099999904632568 C-7.800000190734863,-4.099999904632568 -7.900000095367432,-5.699999809265137 -7.900000095367432,-6.599999904632568 C-7.900000095367432,-7.599999904632568 -7.900000095367432,-9.100000381469727 -6.900000095367432,-9.100000381469727 C-6.900000095367432,-9.100000381469727 -4.300000190734863,-9.100000381469727 -4.300000190734863,-9.100000381469727 C-4.300000190734863,-9.100000381469727 -4.300000190734863,-14 -4.300000190734863,-14 C-4.300000190734863,-15.100000381469727 -2.299999952316284,-15 -1.2000000476837158,-15 C-0.10000000149011612,-15 1.899999976158142,-15 1.899999976158142,-14 C1.899999976158142,-14 1.899999976158142,-9.100000381469727 1.899999976158142,-9.100000381469727 C1.899999976158142,-9.100000381469727 6.699999809265137,-9.100000381469727 6.699999809265137,-9.100000381469727 C7.699999809265137,-9.100000381469727 7.699999809265137,-7.599999904632568 7.699999809265137,-6.599999904632568 C7.699999809265137,-5.699999809265137 7.599999904632568,-4.099999904632568 6.699999809265137,-4.099999904632568 C6.699999809265137,-4.099999904632568 1.899999976158142,-4.099999904632568 1.899999976158142,-4.099999904632568 C1.899999976158142,-4.099999904632568 1.899999976158142,6.300000190734863 1.899999976158142,6.300000190734863 C1.899999976158142,8.399999618530273 2.4000000953674316,9.899999618530273 4.5,9.899999618530273 C6.199999809265137,9.899999618530273 6.699999809265137,9.100000381469727 7.300000190734863,9.399999618530273 C7.800000190734863,9.800000190734863 7.900000095367432,13.399999618530273 7.199999809265137,14.100000381469727z"></path></g><g opacity="1" transform="matrix(1,0,0,1,277.04998779296875,20.523000717163086)"><path fill="rgb(255,255,255)" fill-opacity="1" d=" M8.899999618530273,1.5269999504089355 C8.899999618530273,1.5269999504089355 -4.599999904632568,1.5269999504089355 -4.599999904632568,1.5269999504089355 C-4.599999904632568,5.626999855041504 -2.5999999046325684,7.7270002365112305 1.399999976158142,7.7270002365112305 C5.900000095367432,7.7270002365112305 7.900000095367432,6.2270002365112305 8.899999618530273,6.2270002365112305 C9.699999809265137,6.2270002365112305 9.699999809265137,7.126999855041504 9.699999809265137,8.32699966430664 C9.699999809265137,9.626999855041504 9.600000381469727,10.22700023651123 9.199999809265137,10.72700023651123 C8.5,11.527000427246094 4.199999809265137,12.527000427246094 0.8999999761581421,12.527000427246094 C-7.400000095367432,12.527000427246094 -10.899999618530273,8.22700023651123 -10.899999618530273,0.3269999921321869 C-10.899999618530273,-7.373000144958496 -6.900000095367432,-12.371999740600586 0.4000000059604645,-12.371999740600586 C7.199999809265137,-12.371999740600586 10.800000190734863,-8.371999740600586 10.800000190734863,-1.5720000267028809 C10.800000190734863,-0.2720000147819519 10.899999618530273,1.5269999504089355 8.899999618530273,1.5269999504089355z M4.800000190734863,-2.4730000495910645 C4.900000095367432,-5.7729997634887695 3.5999999046325684,-8.071999549865723 0.30000001192092896,-8.071999549865723 C-2.799999952316284,-8.071999549865723 -4.300000190734863,-5.572999954223633 -4.5,-2.4730000495910645 C-4.5,-2.4730000495910645 4.800000190734863,-2.4730000495910645 4.800000190734863,-2.4730000495910645z"></path></g><g opacity="1" transform="matrix(1,0,0,1,297.8999938964844,20.200000762939453)"><path fill="rgb(255,255,255)" fill-opacity="1" d=" M7.050000190734863,-8.75 C7.050000190734863,-8.050000190734863 7.050000190734863,-6.349999904632568 6.550000190734863,-5.949999809265137 C5.949999809265137,-5.550000190734863 5.150000095367432,-6.349999904632568 3.6500000953674316,-6.349999904632568 C1.75,-6.349999904632568 0.15000000596046448,-4.150000095367432 -0.949999988079071,-2.450000047683716 C-0.949999988079071,-2.450000047683716 -0.949999988079071,11.350000381469727 -0.949999988079071,11.350000381469727 C-0.949999988079071,12.350000381469727 -3.049999952316284,12.350000381469727 -4.050000190734863,12.350000381469727 C-5.050000190734863,12.350000381469727 -7.150000095367432,12.350000381469727 -7.150000095367432,11.350000381469727 C-7.150000095367432,11.350000381469727 -7.150000095367432,-10.850000381469727 -7.150000095367432,-10.850000381469727 C-7.150000095367432,-11.850000381469727 -5.550000190734863,-11.850000381469727 -4.449999809265137,-11.850000381469727 C-3.3499999046325684,-11.850000381469727 -1.75,-11.850000381469727 -1.75,-10.850000381469727 C-1.75,-10.850000381469727 -1.75,-8.149999618530273 -1.75,-8.149999618530273 C-0.15000000596046448,-10.350000381469727 1.5499999523162842,-12.350000381469727 4.150000095367432,-12.350000381469727 C5.050000190734863,-12.350000381469727 5.949999809265137,-12.149999618530273 6.75,-11.75 C7.150000095367432,-11.25 7.050000190734863,-9.850000381469727 7.050000190734863,-8.75z"></path></g><g opacity="1" transform="matrix(1,0,0,1,316.29998779296875,12.399999618530273)"><path fill="rgb(255,255,255)" fill-opacity="1" d=" M-2.549999952316284,-3.549999952316284 C-2.549999952316284,-3.25 -2.549999952316284,-2.75 -2.8499999046325684,-2.75 C-2.8499999046325684,-2.75 -4.949999809265137,-2.75 -4.949999809265137,-2.75 C-4.949999809265137,-2.75 -4.949999809265137,4.150000095367432 -4.949999809265137,4.150000095367432 C-4.949999809265137,4.449999809265137 -5.550000190734863,4.449999809265137 -5.849999904632568,4.449999809265137 C-6.150000095367432,4.449999809265137 -6.849999904632568,4.449999809265137 -6.849999904632568,4.150000095367432 C-6.849999904632568,4.150000095367432 -6.849999904632568,-2.8499999046325684 -6.849999904632568,-2.8499999046325684 C-6.849999904632568,-2.8499999046325684 -8.949999809265137,-2.8499999046325684 -8.949999809265137,-2.8499999046325684 C-9.25,-2.8499999046325684 -9.350000381469727,-3.3499999046325684 -9.350000381469727,-3.6500000953674316 C-9.350000381469727,-3.950000047683716 -9.350000381469727,-4.449999809265137 -8.949999809265137,-4.449999809265137 C-8.949999809265137,-4.449999809265137 -2.8499999046325684,-4.449999809265137 -2.8499999046325684,-4.449999809265137 C-2.549999952316284,-4.449999809265137 -2.549999952316284,-3.8499999046325684 -2.549999952316284,-3.549999952316284z M9.350000381469727,4.050000190734863 C9.350000381469727,4.349999904632568 8.75,4.349999904632568 8.550000190734863,4.349999904632568 C8.350000381469727,4.349999904632568 7.75,4.349999904632568 7.75,4.050000190734863 C7.75,4.050000190734863 7.75,-2.6500000953674316 7.75,-2.6500000953674316 C7.75,-2.6500000953674316 5.25,4.150000095367432 5.25,4.150000095367432 C5.150000095367432,4.349999904632568 4.550000190734863,4.349999904632568 4.349999904632568,4.349999904632568 C4.150000095367432,4.349999904632568 3.549999952316284,4.349999904632568 3.549999952316284,4.150000095367432 C3.549999952316284,4.150000095367432 1.0499999523162842,-2.6500000953674316 1.0499999523162842,-2.6500000953674316 C1.0499999523162842,-2.6500000953674316 1.0499999523162842,4.150000095367432 1.0499999523162842,4.150000095367432 C1.0499999523162842,4.449999809265137 0.44999998807907104,4.449999809265137 0.25,4.449999809265137 C0.05000000074505806,4.449999809265137 -0.6499999761581421,4.449999809265137 -0.6499999761581421,4.150000095367432 C-0.6499999761581421,4.150000095367432 -0.6499999761581421,-3.6500000953674316 -0.6499999761581421,-3.6500000953674316 C-0.6499999761581421,-4.050000190734863 -0.44999998807907104,-4.349999904632568 -0.05000000074505806,-4.349999904632568 C-0.05000000074505806,-4.349999904632568 0.05000000074505806,-4.349999904632568 0.05000000074505806,-4.349999904632568 C0.05000000074505806,-4.349999904632568 1.25,-4.349999904632568 1.25,-4.349999904632568 C2.1500000953674316,-4.349999904632568 2.3499999046325684,-4.050000190734863 2.6500000953674316,-3.25 C2.6500000953674316,-3.25 4.550000190734863,1.9500000476837158 4.550000190734863,1.9500000476837158 C4.550000190734863,1.9500000476837158 6.550000190734863,-3.25 6.550000190734863,-3.25 C6.849999904632568,-4.150000095367432 7.25,-4.349999904632568 7.849999904632568,-4.349999904632568 C7.849999904632568,-4.349999904632568 8.949999809265137,-4.349999904632568 8.949999809265137,-4.349999904632568 C9.350000381469727,-4.349999904632568 9.649999618530273,-4.050000190734863 9.649999618530273,-3.75 C9.649999618530273,-3.75 9.649999618530273,-3.6500000953674316 9.649999618530273,-3.6500000953674316 C9.649999618530273,-3.6500000953674316 9.350000381469727,4.050000190734863 9.350000381469727,4.050000190734863z"></path></g></g><g filter="url(#__lottie_element_92)" style="display: block;" transform="matrix(1,0,0,1,189.98500061035156,125.05000305175781)" opacity="1"><g opacity="1" transform="matrix(1,0,0,1,12.050000190734863,19.950000762939453)"><path fill="rgb(255,255,255)" fill-opacity="1" d=" M10.399999618530273,13.300000190734863 C10.399999618530273,13.300000190734863 -2.9000000953674316,0 -2.9000000953674316,0 C-2.9000000953674316,0 10.399999618530273,-13.300000190734863 10.399999618530273,-13.300000190734863 C11.800000190734863,-14.699999809265137 11.800000190734863,-16.899999618530273 10.399999618530273,-18.299999237060547 C9,-19.700000762939453 6.800000190734863,-19.700000762939453 5.400000095367432,-18.299999237060547 C5.400000095367432,-18.299999237060547 -10.399999618530273,-2.5 -10.399999618530273,-2.5 C-11.800000190734863,-1.100000023841858 -11.800000190734863,1.2000000476837158 -10.399999618530273,2.5 C-10.399999618530273,2.5 5.400000095367432,18.299999237060547 5.400000095367432,18.299999237060547 C6.800000190734863,19.700000762939453 9,19.700000762939453 10.399999618530273,18.299999237060547 C11.800000190734863,17 11.800000190734863,14.800000190734863 10.399999618530273,13.300000190734863 C10.5,13.300000190734863 10.399999618530273,13.300000190734863 10.399999618530273,13.300000190734863z"></path></g></g><g filter="url(#__lottie_element_89)" style="display: block;" transform="matrix(1,0,0,1,148.48500061035156,166.4499969482422)" opacity="1"><g opacity="1" transform="matrix(1,0,0,1,19.950000762939453,12.050000190734863)"><path fill="rgb(255,255,255)" fill-opacity="1" d=" M2.5999999046325684,-10.399999618530273 C1.2000000476837158,-11.800000190734863 -1.100000023841858,-11.800000190734863 -2.4000000953674316,-10.399999618530273 C-2.4000000953674316,-10.399999618530273 -18.299999237060547,5.400000095367432 -18.299999237060547,5.400000095367432 C-19.700000762939453,6.800000190734863 -19.600000381469727,9 -18.200000762939453,10.399999618530273 C-16.799999237060547,11.699999809265137 -14.600000381469727,11.699999809265137 -13.199999809265137,10.399999618530273 C-13.199999809265137,10.399999618530273 0.10000000149011612,-2.9000000953674316 0.10000000149011612,-2.9000000953674316 C0.10000000149011612,-2.9000000953674316 13.399999618530273,10.399999618530273 13.399999618530273,10.399999618530273 C14.800000190734863,11.800000190734863 17,11.699999809265137 18.399999618530273,10.300000190734863 C19.700000762939453,8.899999618530273 19.700000762939453,6.699999809265137 18.399999618530273,5.400000095367432 C18.399999618530273,5.400000095367432 2.5999999046325684,-10.399999618530273 2.5999999046325684,-10.399999618530273z"></path></g></g><g filter="url(#__lottie_element_86)" style="display: block;" transform="matrix(1,0,0,1,148.5850067138672,99.44999694824219)" opacity="1"><g opacity="1" transform="matrix(1,0,0,1,19.950000762939453,12.199999809265137)"><path fill="rgb(255,255,255)" fill-opacity="1" d=" M13.300000190734863,-10.649999618530273 C13.300000190734863,-10.649999618530273 0,2.75 0,2.75 C0,2.75 -13.399999618530273,-10.649999618530273 -13.399999618530273,-10.649999618530273 C-14.800000190734863,-11.949999809265137 -17,-11.949999809265137 -18.399999618530273,-10.550000190734863 C-19.700000762939453,-9.149999618530273 -19.700000762939453,-6.949999809265137 -18.399999618530273,-5.550000190734863 C-18.399999618530273,-5.550000190734863 -2.5999999046325684,10.25 -2.5999999046325684,10.25 C-1.2000000476837158,11.649999618530273 1.100000023841858,11.649999618530273 2.4000000953674316,10.25 C2.4000000953674316,10.25 18.299999237060547,-5.650000095367432 18.299999237060547,-5.650000095367432 C19.700000762939453,-7.050000190734863 19.700000762939453,-9.25 18.299999237060547,-10.649999618530273 C16.899999618530273,-11.949999809265137 14.699999809265137,-11.949999809265137 13.300000190734863,-10.649999618530273z"></path></g></g><g style="display: block;" transform="matrix(1,0,0,1,122.88700103759766,124.94999694824219)" opacity="1"><g opacity="1" transform="matrix(1,0,0,1,12.100000381469727,20)"><path fill="rgb(237,28,36)" fill-opacity="1" d=" M10.449999809265137,2.549999952316284 C10.449999809265137,2.549999952316284 -5.449999809265137,18.350000381469727 -5.449999809265137,18.350000381469727 C-6.849999904632568,19.75 -9.050000190734863,19.75 -10.449999809265137,18.350000381469727 C-11.850000381469727,16.950000762939453 -11.850000381469727,14.75 -10.449999809265137,13.350000381469727 C-10.449999809265137,13.350000381469727 2.950000047683716,0.05000000074505806 2.950000047683716,0.05000000074505806 C2.950000047683716,0.05000000074505806 -10.449999809265137,-13.350000381469727 -10.449999809265137,-13.350000381469727 C-11.850000381469727,-14.75 -11.850000381469727,-16.950000762939453 -10.449999809265137,-18.350000381469727 C-9.050000190734863,-19.75 -6.849999904632568,-19.75 -5.449999809265137,-18.350000381469727 C-5.449999809265137,-18.350000381469727 10.350000381469727,-2.549999952316284 10.350000381469727,-2.549999952316284 C11.850000381469727,-1.0499999523162842 11.850000381469727,1.149999976158142 10.449999809265137,2.549999952316284z"></path></g></g></g></svg>
