<svg xmlns="http://www.w3.org/2000/svg" id="ST-SafetySmart-Platform-LockupHorizontal-2Color-RGB" width="376.102" height="90" viewBox="0 0 376.102 90"><g id="Group_84299" data-name="Group 84299" transform="translate(261.637 80.606)"><g id="Group_84298" data-name="Group 84298"><path id="Path_44807" data-name="Path 44807" d="M1033.11,349.72h5.981c2.529,0,3.14,1.507,3.14,2.7a2.691,2.691,0,0,1-2.952,3.016h-3.749v3.177h-2.417v-8.9Zm2.417,4.1c3.048,0,4.213.283,4.213-1.221s-.818-1.258-4.213-1.258Z" transform="translate(-1033.11 -349.468)" fill="#84929b"></path><path id="Path_44808" data-name="Path 44808" d="M1080.31,349.72h2.417v7.128h5.42v1.769h-7.837Z" transform="translate(-1067.813 -349.468)" fill="#84929b"></path><path id="Path_44809" data-name="Path 44809" d="M1125.826,356.784h-4.088l-.723,1.832h-2.605l3.913-8.9h2.915l3.913,8.9h-2.605Zm-2.044-5.147-1.4,3.527h2.791Z" transform="translate(-1095.825 -349.468)" fill="#84929b"></path><path id="Path_44810" data-name="Path 44810" d="M1166.992,351.415h-3.3V349.72h9.021v1.695h-3.3v7.2h-2.417Z" transform="translate(-1129.116 -349.468)" fill="#84929b"></path><path id="Path_44811" data-name="Path 44811" d="M1208.91,349.72h7.949v1.695h-5.531v1.943h5.184v1.695h-5.184v3.564h-2.417Z" transform="translate(-1162.362 -349.468)" fill="#84929b"></path><path id="Path_44812" data-name="Path 44812" d="M1254.541,348.77c4.785,0,5.531,2.841,5.531,4.7s-.747,4.7-5.531,4.7-5.531-2.841-5.531-4.7S1249.757,348.77,1254.541,348.77Zm0,7.7a3,3,0,1,0-2.965-3A2.8,2.8,0,0,0,1254.541,356.472Z" transform="translate(-1191.845 -348.77)" fill="#84929b"></path><path id="Path_44813" data-name="Path 44813" d="M1303.3,349.72h6.466c2.468,0,2.878,1.507,2.878,2.417a2.027,2.027,0,0,1-1.446,2.142v.024c1.845.283.763,3.339,1.681,4.311h-2.642c-.6-1.1.413-3.265-1.52-3.265h-3v3.265H1303.3V349.72Zm2.417,3.937h3.2a1.08,1.08,0,0,0,1.16-1.133c0-.884-.7-1.109-1.284-1.109h-3.077Z" transform="translate(-1231.76 -349.468)" fill="#84929b"></path><path id="Path_44814" data-name="Path 44814" d="M1360.236,349.72h3.551v8.9h-2.343v-7.128h-.024l-2.817,7.128h-2.018l-2.817-7.128h-.024v7.128H1351.4v-8.9h3.551l2.643,6.4Z" transform="translate(-1267.125 -349.468)" fill="#84929b"></path></g></g><g id="Group_84301" data-name="Group 84301" transform="translate(158.816 46.677)"><path id="Path_44815" data-name="Path 44815" d="M1411.284,254.569c0,.249-.037.659-.283.659h-1.822v5.87c0,.246-.548.259-.789.259s-.815-.013-.815-.259v-5.87h-1.785c-.267,0-.31-.392-.31-.659s.032-.7.31-.7H1411C1411.257,253.87,1411.284,254.312,1411.284,254.569Zm10.067,6.529c0,.249-.477.259-.723.259s-.723-.008-.723-.259v-5.767h-.026l-2.158,5.817c-.05.2-.572.206-.776.206s-.641-.013-.712-.206l-2.113-5.817h-.026V261.1c0,.241-.469.259-.712.259s-.749-.008-.749-.259v-6.619a.564.564,0,0,1,.583-.606h.982c.725,0,.95.254,1.178.906l1.62,4.448,1.718-4.448c.273-.733.609-.906,1.1-.906h.956a.557.557,0,0,1,.583.606Z" transform="translate(-1204.064 -245.069)" fill="#43525a"></path><g id="Group_84300" data-name="Group 84300"><path id="Path_44816" data-name="Path 44816" d="M661.79,250.662c-3.342,6.768-14.038,5.248-16.5,2.783a1.571,1.571,0,0,1-.389-.789c-.148-.659-.27-3.257.315-3.688.363-.265.813-.019,1.2.233,4.345,2.815,10.422,2.664,10.422-1.591,0-4.946-11.589-3.466-11.589-12.434a7.75,7.75,0,0,1,.728-3.445c3.2-6.54,13.832-4.361,14.814-2.412.289.58.376,3.58-.127,4.046a.523.523,0,0,1-.368.127,1.781,1.781,0,0,1-.739-.294c-3.847-2.243-8.682-2.245-8.682,1.369,0,3.01,4.215,3.516,8.007,5.828A7.857,7.857,0,0,1,661.79,250.662Z" transform="translate(-644.777 -225.563)" fill="#43525a"></path><path id="Path_44817" data-name="Path 44817" d="M733.376,273.792c0,.808-1.324.778-2.214.778-1.038,0-2.171.029-2.171-.778v-1.5c-4.162,4.464-12.791,3.32-12.791-3.477,0-5.245,4.935-6.408,10.136-6.408h1.832c0-2.926-.119-4.657-3.561-4.657a10.908,10.908,0,0,0-5.552,1.6,1.966,1.966,0,0,1-.874.294c-1,0-1.08-2.311-.842-3.161.691-2.489,13.392-5.327,15.574,1.305C733.53,259.682,733.376,260.228,733.376,273.792Zm-5.206-8.049c-2.9,0-6.786-.281-6.786,2.907,0,2.59,2.979,3.111,4.877,1.959a8.5,8.5,0,0,0,1.906-1.665v-3.2Z" transform="translate(-697.289 -244.942)" fill="#43525a"></path><path id="Path_44818" data-name="Path 44818" d="M798.166,225.276c-.4.281-.932-.389-2.465-.389-2.476,0-2.192,2.544-2.192,5.015h3.434c.8,0,.821,1.3.821,2.15,0,.773-.045,2.15-.821,2.15h-3.434v15.214c0,.871-1.771.842-2.656.842-1.1,0-2.635-.013-2.635-.842V234.2H785.86c-.771,0-.8-1.377-.8-2.15,0-.892.026-2.15.821-2.15h2.338c0-2.346-.124-5.341,1.57-7.345,2.391-2.828,7.554-1.906,8.314-1.2C798.659,221.877,798.685,224.914,798.166,225.276Z" transform="translate(-747.917 -220.629)" fill="#43525a"></path><path id="Path_44819" data-name="Path 44819" d="M849.887,265.769H838.443c0,3.479,1.663,5.248,5.142,5.248,4.1,0,5.971-1.623,6.68-1.213.371.217.357,1.086.357,1.676,0,1.019-.024,1.6-.432,2.044-.837.9-10.294,3.36-14.634-1.054-1.981-2.012-2.507-5.012-2.507-7.84,0-6.336,3.252-10.811,9.588-10.811,5.928,0,8.873,3.559,8.873,9.209C851.508,264.178,851.64,265.769,849.887,265.769Zm-3.519-3.416c.079-2.807-1.051-4.785-3.858-4.785-2.672,0-3.953,2.116-4.067,4.785Z" transform="translate(-783.2 -245.032)" fill="#43525a"></path><path id="Path_44820" data-name="Path 44820" d="M917.273,260.631c-.14.6-.291.99-1.729,1.327-2.126.5-5.29.379-6.9-1.39-1.93-2.116-1.475-5.145-1.475-14.719h-2.256c-.776,0-.821-1.369-.821-2.15,0-.876.016-2.15.842-2.15h2.235v-4.194c0-.9,1.652-.884,2.634-.884.921,0,2.656-.024,2.656.884v4.194h4.088c.831,0,.842,1.284.842,2.15,0,.781-.048,2.15-.821,2.15H912.46c0,9.294-.161,10.114.485,11.136.974,1.544,3.654.283,3.858.283C917.612,257.268,917.395,260.117,917.273,260.631Z" transform="translate(-835.43 -232.276)" fill="#43525a"></path><path id="Path_44821" data-name="Path 44821" d="M969.6,275.529l-2.277,6.659c-.352.982-2.455.99-3.5.99-1.509,0-2.772-.093-2.256-1.348l2.507-6.3a1.709,1.709,0,0,1-.821-.948c-6.868-18.349-6.744-17.841-6.744-18.407,0-1,1.3-1,2.7-1,2.359,0,2.6.042,2.992,1.327l4.424,12.58h.064l4.046-12.834c.209-.9.442-1.075,2.613-1.075,2.206,0,3.056.222,2.507,1.938Z" transform="translate(-873.97 -246.025)" fill="#43525a"></path><path id="Path_44822" data-name="Path 44822" d="M1049.7,246.825c0,8.859-10.964,10.324-16.405,7.186-1.107-.638-1.4-.916-1.4-2.907,0-.911-.016-2.317.8-2.317.731,0,2.873,2.235,6.932,2.235,2.417,0,4.321-1.1,4.321-3.477,0-4.962-11.589-3.463-11.589-12.434,0-5.163,3.982-7.861,9.145-7.861,2.372,0,5.849.916,6.4,2,.286.577.376,3.58-.127,4.046-.3.278-.752.04-1.107-.169-4.3-2.5-8.682-1.949-8.682,1.369C1037.977,239.411,1049.7,237.971,1049.7,246.825Z" transform="translate(-929.392 -225.497)" fill="#43525a"></path><path id="Path_44823" data-name="Path 44823" d="M1136.654,273.826c0,.876-1.758.842-2.635.842-1.112,0-2.656-.008-2.656-.842V262.679c0-2.237-.755-4.236-2.992-4.236-1.568,0-3.021,1.642-4.025,2.886v12.5c0,.863-1.755.842-2.635.842-.9,0-2.656.013-2.656-.842V262.679c0-2.237-.741-4.236-2.971-4.236-1.6,0-3.029,1.628-4.025,2.886v12.5c0,.861-1.74.842-2.656.842-.9,0-2.656.013-2.656-.842v-18.8c0-.823,1.348-.842,2.277-.842.887,0,2.256-.005,2.256.842V257.2c1.737-1.877,3.776-3.371,6.344-3.371,2.65,0,4.758,1,5.88,3.434,1.787-1.92,3.85-3.434,6.447-3.434,4.753,0,6.7,3.249,6.7,7.964v12.031Z" transform="translate(-984.431 -245.039)" fill="#43525a"></path><path id="Path_44824" data-name="Path 44824" d="M1244.5,273.875c0,.81-1.321.778-2.214.778-1.038,0-2.171.029-2.171-.778v-1.5c-4.162,4.464-12.791,3.32-12.791-3.477,0-5.245,4.935-6.408,10.136-6.408h1.832c0-2.91-.114-4.657-3.561-4.657a10.908,10.908,0,0,0-5.552,1.6,1.966,1.966,0,0,1-.874.294c-1.115,0-1.25-3.01-.442-3.847,1.078-1.115,4.71-2.076,7.334-2.076,6.13,0,8.3,2.441,8.3,7.419Zm-5.205-8.049c-3.016,0-6.786-.252-6.786,2.907,0,2.589,2.979,3.111,4.877,1.959a8.5,8.5,0,0,0,1.906-1.665v-3.2Z" transform="translate(-1073.077 -245.025)" fill="#43525a"></path><path id="Path_44825" data-name="Path 44825" d="M1316.037,259.165c-1,.773-2.767-2.722-6.376,2.95v11.716c0,.861-1.74.842-2.656.842-.9,0-2.656.013-2.656-.842v-18.8c0-.826,1.353-.842,2.277-.842.887,0,2.256-.005,2.256.842v2.338c1.493-2.137,3.016-3.768,5.584-3.508a3.827,3.827,0,0,1,1.613.474C1316.577,254.794,1316.572,258.752,1316.037,259.165Z" transform="translate(-1129.711 -245.045)" fill="#43525a"></path><path id="Path_44826" data-name="Path 44826" d="M1364.056,261.327c-.638.675-2.666.874-3.667.874-4.382,0-6.132-2.269-6.132-6.723v-9.63H1352c-.776,0-.821-1.369-.821-2.15,0-.876.016-2.15.842-2.15h2.235v-4.194c0-.9,1.652-.884,2.635-.884.951,0,2.656-.011,2.656.884v4.194h4.088c.831,0,.842,1.284.842,2.15,0,.781-.048,2.15-.821,2.15h-4.109v8.83c0,1.816.405,3.077,2.214,3.077,1.414,0,1.914-.7,2.37-.41C1364.535,257.6,1364.692,260.657,1364.056,261.327Z" transform="translate(-1164.142 -232.276)" fill="#43525a"></path></g></g><path id="Path_44827" data-name="Path 44827" d="M214.551,73.354q-5.922-.334-11.759-.961,4.627-3.88,9.129-7.957a2.006,2.006,0,1,0-2.693-2.973q-4.5,4.079-9.137,7.957a4.894,4.894,0,0,0-6.3,1.832,217.543,217.543,0,0,1-25.99-5.428c-.005-.032-.008-.061-.013-.093q4.714-3.142,9.413-6.609a2.007,2.007,0,1,0-2.388-3.225q-4.607,3.412-9.246,6.492a4.89,4.89,0,0,0-6.294.892,195.8,195.8,0,0,1-23.864-9.431,2.3,2.3,0,0,0-.008-.471q4.75-2.538,9.317-5.322a2.005,2.005,0,1,0-2.089-3.424Q138.1,47.4,133.54,49.826a4.891,4.891,0,0,0-6.087.016q-4.536-2.423-8.9-5.073a2.006,2.006,0,1,0-2.086,3.426q4.476,2.725,9.14,5.208a1.934,1.934,0,0,0-.008.418,195.465,195.465,0,0,1-23.864,9.415,4.9,4.9,0,0,0-6.323-.831Q90.77,59.312,86.145,55.9a2.007,2.007,0,0,0-2.388,3.225q4.718,3.491,9.468,6.646a220.255,220.255,0,0,1-26.009,5.465,4.9,4.9,0,0,0-6.328-1.8q-4.774-4-9.413-8.2a2.006,2.006,0,1,0-2.7,2.971Q53.4,68.4,58.164,72.393c-3.99.429-7.774.733-11.309.937a2.006,2.006,0,0,0,.117,4.009c.04,0,.079,0,.119,0Q53,76.995,58.85,76.362A4.9,4.9,0,0,0,65.313,78.2Q77.3,87.665,89.961,95.773c-3.916,1-7.631,1.853-11.1,2.576a2.005,2.005,0,0,0,.818,3.927c3.582-.747,7.416-1.626,11.462-2.666a4.9,4.9,0,0,0,6.617.972,281.946,281.946,0,0,0,27.693,14.528q-5.318,2.2-10.663,4.152a2.006,2.006,0,1,0,1.372,3.77q5.509-2,10.988-4.284a4.892,4.892,0,0,0,6.7.016c.861.357,10.943,4.483,11.9,4.483a2.006,2.006,0,0,0,.683-3.892q-5.477-1.986-10.925-4.247a282.457,282.457,0,0,0,27.69-14.526,4.9,4.9,0,0,0,6.651-.966c2.176.559,11.346,2.772,12.19,2.772a2.005,2.005,0,0,0,.405-3.969c-3.574-.739-7.406-1.615-11.449-2.65q12.654-8.094,24.672-17.586a4.9,4.9,0,0,0,6.5-1.822q6.033.647,12.156,1a2.005,2.005,0,0,0,.233-4Zm-45.83,19.112a4.9,4.9,0,0,0-6.445.908,254.829,254.829,0,0,1-26.835-9.543A243.96,243.96,0,0,0,160.177,70.6a4.906,4.906,0,0,0,6.535-.908,221.32,221.32,0,0,0,26.276,5.5Q181.188,84.491,168.721,92.466ZM102.972,67.084a199.483,199.483,0,0,0,24.373-9.646,4.906,4.906,0,0,0,6.307.019,199.31,199.31,0,0,0,24.418,9.651c0,.024.008.045.011.069a239.855,239.855,0,0,1-24.37,13.038,4.9,4.9,0,0,0-6.421.016,239.589,239.589,0,0,1-24.336-13.014C102.959,67.172,102.966,67.129,102.972,67.084Zm-8.65,2.576a4.906,4.906,0,0,0,6.492.948,243.879,243.879,0,0,0,24.706,13.22,254.889,254.889,0,0,1-26.8,9.535,4.907,4.907,0,0,0-6.482-.9Q79.8,84.513,67.982,75.192A220.059,220.059,0,0,0,94.322,69.66ZM133.76,111.5a4.889,4.889,0,0,0-6.519.019,278.371,278.371,0,0,1-27.33-14.322A258.611,258.611,0,0,0,127.138,87.5a4.893,4.893,0,0,0,6.723.016,258.988,258.988,0,0,0,27.19,9.678A277.553,277.553,0,0,1,133.76,111.5Z" transform="translate(-44.966 -44.34)" fill="#ed1c24"></path></svg>