<svg xmlns="http://www.w3.org/2000/svg" viewBox="0 0 250 250" width="250" height="250" preserveAspectRatio="xMidYMid meet" style="width: 100%; height: 100%; transform: translate3d(0px, 0px, 0px);"><defs><clipPath id="__lottie_element_10"><rect width="250" height="250" x="0" y="0"></rect></clipPath><filter id="__lottie_element_13" filterUnits="objectBoundingBox" x="0%" y="0%" width="100%" height="100%"><feColorMatrix type="matrix" color-interpolation-filters="sRGB" values="0 0 0 0 0.26274511218070984 0 0 0 0 0.32156863808631897 0 0 0 0 0.3529411852359772 0 0 0 1 0"></feColorMatrix></filter><filter id="__lottie_element_16" filterUnits="objectBoundingBox" x="0%" y="0%" width="100%" height="100%"><feColorMatrix type="matrix" color-interpolation-filters="sRGB" values="0 0 0 0 0.26274511218070984 0 0 0 0 0.32156863808631897 0 0 0 0 0.3529411852359772 0 0 0 1 0"></feColorMatrix></filter><filter id="__lottie_element_19" filterUnits="objectBoundingBox" x="0%" y="0%" width="100%" height="100%"><feColorMatrix type="matrix" color-interpolation-filters="sRGB" values="0 0 0 0 0.26274511218070984 0 0 0 0 0.32156863808631897 0 0 0 0 0.3529411852359772 0 0 0 1 0"></feColorMatrix></filter><filter id="__lottie_element_22" filterUnits="objectBoundingBox" x="0%" y="0%" width="100%" height="100%"><feColorMatrix type="matrix" color-interpolation-filters="sRGB" values="0 0 0 0 0.26274511218070984 0 0 0 0 0.32156863808631897 0 0 0 0 0.3529411852359772 0 0 0 1 0"></feColorMatrix></filter><filter id="__lottie_element_28" filterUnits="objectBoundingBox" x="0%" y="0%" width="100%" height="100%"><feColorMatrix type="matrix" color-interpolation-filters="sRGB" values="0 0 0 0 0.26274511218070984 0 0 0 0 0.32156863808631897 0 0 0 0 0.3529411852359772 0 0 0 1 0"></feColorMatrix></filter></defs><g clip-path="url(#__lottie_element_10)"><g filter="url(#__lottie_element_28)" style="display: block;" transform="matrix(1,0,0,1,9.05999755859375,158.7239990234375)" opacity="1"><g opacity="1" transform="matrix(1,0,0,1,10.32800006866455,17.676000595092773)"><path fill="rgb(255,255,255)" fill-opacity="1" d=" M9.887999534606934,6.039999961853027 C9.887999534606934,12.279000282287598 4.979000091552734,15.64900016784668 -1.312000036239624,15.64900016784668 C-3.743000030517578,15.678000450134277 -6.144999980926514,15.116999626159668 -8.312000274658203,14.012999534606934 C-8.670999526977539,13.821999549865723 -9.003999710083008,13.586999893188477 -9.305000305175781,13.312999725341797 C-10.07800006866455,12.543000221252441 -10.057000160217285,8.836000442504883 -9.38700008392334,8.345999717712402 C-8.350000381469727,7.5879998207092285 -6.564000129699707,10.696000099182129 -1.2869999408721924,10.696000099182129 C1.36899995803833,10.696000099182129 3.506999969482422,9.496000289916992 3.506999969482422,6.839000225067139 C3.506999969482422,3.994999885559082 -0.21199999749660492,2.875999927520752 -2.9230000972747803,1.625 C-6.876999855041504,-0.19900000095367432 -9.352999687194824,-2.5460000038146973 -9.352999687194824,-6.955999851226807 C-9.352999687194824,-12.645999908447266 -4.98199987411499,-15.678000450134277 0.7929999828338623,-15.678000450134277 C3.1429998874664307,-15.678000450134277 7.23799991607666,-14.75 7.89300012588501,-13.456999778747559 C8.210000038146973,-12.819999694824219 8.3100004196167,-9.482999801635742 7.751999855041504,-8.968000411987305 C6.943999767303467,-8.225000381469727 5.052000045776367,-10.88599967956543 0.8899999856948853,-10.88599967956543 C-1.815000057220459,-10.88599967956543 -3.109999895095825,-9.486000061035156 -3.109999895095825,-7.63700008392334 C-3.109999895095825,-4.793000221252441 0.5590000152587891,-3.753999948501587 3.390000104904175,-2.446000099182129 C7.264999866485596,-0.6570000052452087 9.887999534606934,1.625 9.887999534606934,6.039999961853027z"></path></g><g opacity="1" transform="matrix(1,0,0,1,32.60499954223633,16.604000091552734)"><path fill="rgb(255,255,255)" fill-opacity="1" d=" M9.960000038146973,15.390000343322754 C9.960000038146973,16.354000091552734 8.012999534606934,16.323999404907227 7.038000106811523,16.323999404907227 C6.063000202178955,16.323999404907227 4.091000080108643,16.350000381469727 4.091000080108643,15.390000343322754 C4.091000080108643,15.390000343322754 4.091000080108643,3.490000009536743 4.091000080108643,3.490000009536743 C4.091000080108643,0.7139999866485596 3.3610000610351562,-1.6770000457763672 0.5849999785423279,-1.6770000457763672 C-1.2630000114440918,-1.6770000457763672 -2.9149999618530273,0.06800000369548798 -4.067999839782715,1.5230000019073486 C-4.067999839782715,1.5230000019073486 -4.067999839782715,15.387999534606934 -4.067999839782715,15.387999534606934 C-4.067999839782715,16.351999282836914 -6.039000034332275,16.32200050354004 -7.013999938964844,16.32200050354004 C-8.013999938964844,16.32200050354004 -9.960000038146973,16.336999893188477 -9.960000038146973,15.387999534606934 C-9.960000038146973,15.387999534606934 -9.960000038146973,-15.354000091552734 -9.960000038146973,-15.354000091552734 C-9.960000038146973,-16.332000732421875 -8.0600004196167,-16.354000091552734 -7.013999938964844,-16.354000091552734 C-6.013999938964844,-16.354000091552734 -4.067999839782715,-16.339000701904297 -4.067999839782715,-15.354000091552734 C-4.067999839782715,-15.354000091552734 -4.067999839782715,-3.8269999027252197 -4.067999839782715,-3.8269999027252197 C-2.430999994277954,-5.640999794006348 -0.12800000607967377,-6.7129998207092285 2.313999891281128,-6.796999931335449 C7.9720001220703125,-6.796999931335449 9.960000038146973,-2.9660000801086426 9.960000038146973,2.6029999256134033 C9.960000038146973,2.6029999256134033 9.960000038146973,15.390000343322754 9.960000038146973,15.390000343322754z"></path></g><g opacity="1" transform="matrix(1,0,0,1,56.15999984741211,21.56599998474121)"><path fill="rgb(255,255,255)" fill-opacity="1" d=" M11.175999641418457,-0.20999999344348907 C11.175999641418457,7.190000057220459 7.159999847412109,11.760000228881836 -0.25699999928474426,11.760000228881836 C-7.2129998207092285,11.760000228881836 -11.175999641418457,8.093999862670898 -11.175999641418457,0.20999999344348907 C-11.175999641418457,-7.190000057220459 -7.1519999504089355,-11.760000228881836 0.25699999928474426,-11.760000228881836 C7.502999782562256,-11.758999824523926 11.175999641418457,-7.888000011444092 11.175999641418457,-0.20999999344348907z M5.11899995803833,0.023000000044703484 C5.11899995803833,-3.940000057220459 4.008999824523926,-7.10699987411499 0.04600000008940697,-7.10699987411499 C-3.8259999752044678,-7.10699987411499 -5.120999813079834,-3.9130001068115234 -5.120999813079834,-0.04399999976158142 C-5.120999813079834,3.9040000438690186 -3.996000051498413,7.064000129699707 -0.04800000041723251,7.064000129699707 C3.86299991607666,7.060999870300293 5.120999813079834,3.934999942779541 5.120999813079834,0.023000000044703484 C5.120999813079834,0.023000000044703484 5.11899995803833,0.023000000044703484 5.11899995803833,0.023000000044703484z"></path></g><g opacity="1" transform="matrix(1,0,0,1,75.08000183105469,18.968000411987305)"><path fill="rgb(255,255,255)" fill-opacity="1" d=" M6.789000034332275,13.317000389099121 C6.089000225067139,14.0600004196167 3.8399999141693115,14.28600025177002 2.7200000286102295,14.28600025177002 C-2.2239999771118164,14.28600025177002 -4.079999923706055,11.673999786376953 -4.079999923706055,6.828000068664551 C-4.079999923706055,6.828000068664551 -4.079999923706055,-3.8559999465942383 -4.079999923706055,-3.8559999465942383 C-4.079999923706055,-3.8559999465942383 -6.579999923706055,-3.8559999465942383 -6.579999923706055,-3.8559999465942383 C-7.440999984741211,-3.8559999465942383 -7.491000175476074,-5.375 -7.491000175476074,-6.241000175476074 C-7.491000175476074,-7.206999778747559 -7.465000152587891,-8.62600040435791 -6.557000160217285,-8.62600040435791 C-6.557000160217285,-8.62600040435791 -4.078000068664551,-8.62600040435791 -4.078000068664551,-8.62600040435791 C-4.078000068664551,-8.62600040435791 -4.078000068664551,-13.279000282287598 -4.078000068664551,-13.279000282287598 C-4.078000068664551,-14.279000282287598 -2.2190001010894775,-14.260000228881836 -1.1549999713897705,-14.260000228881836 C-0.12999999523162842,-14.260000228881836 1.7910000085830688,-14.28600025177002 1.7910000085830688,-13.279000282287598 C1.7910000085830688,-13.279000282287598 1.7910000085830688,-8.62600040435791 1.7910000085830688,-8.62600040435791 C1.7910000085830688,-8.62600040435791 6.323999881744385,-8.62600040435791 6.323999881744385,-8.62600040435791 C7.245999813079834,-8.62600040435791 7.257999897003174,-7.181000232696533 7.257999897003174,-6.241000175476074 C7.257999897003174,-5.376999855041504 7.204999923706055,-3.8559999465942383 6.3470001220703125,-3.8559999465942383 C6.3470001220703125,-3.8559999465942383 1.7879999876022339,-3.8559999465942383 1.7879999876022339,-3.8559999465942383 C1.7879999876022339,-3.8559999465942383 1.7879999876022339,5.943999767303467 1.7879999876022339,5.943999767303467 C1.7879999876022339,7.953000068664551 2.234999895095825,9.357000350952148 4.24399995803833,9.357000350952148 C5.843999862670898,9.357000350952148 6.355999946594238,8.572999954223633 6.873000144958496,8.902000427246094 C7.323999881744385,9.185999870300293 7.491000175476074,12.576000213623047 6.789000034332275,13.317000389099121z"></path></g><g opacity="1" transform="matrix(1,0,0,1,93.375,17.672000885009766)"><path fill="rgb(255,255,255)" fill-opacity="1" d=" M9.963000297546387,6.044000148773193 C9.963000297546387,12.274999618530273 5.071000099182129,15.652000427246094 -1.2380000352859497,15.652000427246094 C-3.6689999103546143,15.675999641418457 -6.070000171661377,15.114999771118164 -8.23799991607666,14.015999794006348 C-9.074999809265137,13.534000396728516 -9.484000205993652,13.24899959564209 -9.663000106811523,12.439000129699707 C-9.82800006866455,11.711000442504883 -9.961999893188477,8.82699966430664 -9.312000274658203,8.347999572753906 C-8.274999618530273,7.590000152587891 -6.489999771118164,10.696999549865723 -1.2130000591278076,10.696999549865723 C1.4429999589920044,10.696999549865723 3.5810000896453857,9.496999740600586 3.5810000896453857,6.840000152587891 C3.5810000896453857,3.999000072479248 -0.12600000202655792,2.882999897003174 -2.8489999771118164,1.6260000467300415 C-6.802999973297119,-0.1979999989271164 -9.279000282287598,-2.5439999103546143 -9.279000282287598,-6.953999996185303 C-9.279000282287598,-12.53499984741211 -5.047999858856201,-15.675999641418457 0.8679999709129333,-15.675999641418457 C3.440999984741211,-15.675999641418457 7.3470001220703125,-14.677000045776367 7.9670000076293945,-13.456000328063965 C8.178999900817871,-12.767999649047852 8.263999938964844,-12.04699993133545 8.21500015258789,-11.329000473022461 C8.21500015258789,-10.189000129699707 8.244000434875488,-8.829000473022461 7.414999961853027,-8.829000473022461 C6.701000213623047,-8.829000473022461 4.5229997634887695,-10.885000228881836 0.9599999785423279,-10.885000228881836 C-1.2899999618530273,-10.885000228881836 -3.0399999618530273,-9.843999862670898 -3.0399999618530273,-7.635000228881836 C-3.0399999618530273,-4.790999889373779 0.6320000290870667,-3.75 3.4600000381469727,-2.444999933242798 C7.339000225067139,-0.6539999842643738 9.963000297546387,1.628999948501587 9.963000297546387,6.044000148773193z"></path></g><g opacity="1" transform="matrix(1,0,0,1,116.26399993896484,25.540000915527344)"><path fill="rgb(255,255,255)" fill-opacity="1" d=" M10.496999740600586,-4.2769999504089355 C10.496999740600586,2.240999937057495 7.918000221252441,7.785999774932861 1.4019999504089355,7.785999774932861 C-1.0980000495910645,7.785999774932861 -2.757999897003174,6.703000068664551 -4.605000019073486,4.910999774932861 C-4.605000019073486,4.910999774932861 -4.605000019073486,14.729999542236328 -4.605000019073486,14.729999542236328 C-4.605000019073486,15.722999572753906 -6.552999973297119,15.729999542236328 -7.551000118255615,15.729999542236328 C-8.581999778747559,15.729999542236328 -10.496999740600586,15.701000213623047 -10.496999740600586,14.729999542236328 C-10.496999740600586,14.729999542236328 -10.496999740600586,-14.399999618530273 -10.496999740600586,-14.399999618530273 C-10.496999740600586,-15.317000389099121 -9.019000053405762,-15.333000183105469 -7.997000217437744,-15.333000183105469 C-7.059999942779541,-15.333000183105469 -5.51800012588501,-15.32800006866455 -5.51800012588501,-14.399999618530273 C-5.51800012588501,-14.399999618530273 -5.51800012588501,-11.942999839782715 -5.51800012588501,-11.942999839782715 C-3.2799999713897705,-14.237000465393066 -1.1640000343322754,-15.729999542236328 2.010999917984009,-15.729999542236328 C8.194000244140625,-15.730999946594238 10.496999740600586,-10.456999778747559 10.496999740600586,-4.2769999504089355z M4.372000217437744,-3.8570001125335693 C4.372000217437744,-7.120999813079834 3.5320000648498535,-10.708000183105469 0.2800000011920929,-10.708000183105469 C-1.7699999809265137,-10.708000183105469 -3.3570001125335693,-9.031000137329102 -4.605000019073486,-7.364999771118164 C-4.605000019073486,-7.364999771118164 -4.605000019073486,-0.49000000953674316 -4.605000019073486,-0.49000000953674316 C-3.4049999713897705,1.0230000019073486 -1.8259999752044678,2.7809998989105225 0.0949999988079071,2.7809998989105225 C3.1760001182556152,2.7809998989105225 4.372000217437744,-0.7609999775886536 4.372000217437744,-3.8570001125335693 C4.372000217437744,-3.8570001125335693 4.372000217437744,-3.8570001125335693 4.372000217437744,-3.8570001125335693z"></path></g><g opacity="1" transform="matrix(1,0,0,1,139.48199462890625,21.56599998474121)"><path fill="rgb(255,255,255)" fill-opacity="1" d=" M11.175999641418457,-0.20999999344348907 C11.175999641418457,7.133999824523926 7.236999988555908,11.760000228881836 -0.25699999928474426,11.760000228881836 C-7.195000171661377,11.760000228881836 -11.175999641418457,8.109000205993652 -11.175999641418457,0.20999999344348907 C-11.175999641418457,-7.068999767303467 -7.260000228881836,-11.760000228881836 0.25699999928474426,-11.760000228881836 C7.413000106811523,-11.758999824523926 11.175999641418457,-7.973999977111816 11.175999641418457,-0.20999999344348907z M5.122000217437744,0.023000000044703484 C5.122000217437744,-3.943000078201294 4.014999866485596,-7.10699987411499 0.04899999871850014,-7.10699987411499 C-3.819999933242798,-7.10699987411499 -5.118000030517578,-3.9189999103546143 -5.118000030517578,-0.04399999976158142 C-5.118000030517578,3.885999917984009 -4.005000114440918,7.064000129699707 -0.04500000178813934,7.064000129699707 C3.8610000610351562,7.060999870300293 5.122000217437744,3.934999942779541 5.122000217437744,0.023000000044703484 C5.122000217437744,0.023000000044703484 5.122000217437744,0.023000000044703484 5.122000217437744,0.023000000044703484z"></path></g><g opacity="1" transform="matrix(1,0,0,1,165.80499267578125,18.422000885009766)"><path fill="rgb(255,255,255)" fill-opacity="1" d=" M14.748000144958496,11.515999794006348 C14.82800006866455,12.326000213623047 14.66100025177002,13.140999794006348 14.269000053405762,13.854000091552734 C13.579000473022461,14.579999923706055 11.369000434875488,14.835000038146973 10.236000061035156,14.835000038146973 C7.035999774932861,14.835000038146973 4.677999973297119,13.770999908447266 3.805999994277954,10.694999694824219 C3.259999990463257,8.770999908447266 3.4059998989105225,7.613999843597412 3.4059998989105225,-3.305000066757202 C3.4059998989105225,-3.305000066757202 -5.547999858856201,-3.305000066757202 -5.547999858856201,-3.305000066757202 C-5.547999858856201,-3.305000066757202 -5.547999858856201,6.494999885559082 -5.547999858856201,6.494999885559082 C-5.547999858856201,8.510000228881836 -5.098999977111816,9.909000396728516 -3.0920000076293945,9.909000396728516 C-1.503000020980835,9.909000396728516 -0.9750000238418579,9.128000259399414 -0.46399998664855957,9.454000473022461 C-0.1120000034570694,9.680000305175781 -0.07800000160932541,11.10099983215332 -0.07800000160932541,11.520999908447266 C-0.07800000160932541,12.293999671936035 -0.07900000363588333,13.527000427246094 -0.6169999837875366,13.96500015258789 C-1.4040000438690186,14.604999542236328 -3.4609999656677246,14.84000015258789 -4.617000102996826,14.84000015258789 C-9.560999870300293,14.84000015258789 -11.416000366210938,12.229999542236328 -11.416000366210938,7.382999897003174 C-11.416000366210938,7.382999897003174 -11.416000366210938,-3.306999921798706 -11.416000366210938,-3.306999921798706 C-11.416000366210938,-3.306999921798706 -13.916000366210938,-3.306999921798706 -13.916000366210938,-3.306999921798706 C-14.777000427246094,-3.306999921798706 -14.82699966430664,-4.833000183105469 -14.82699966430664,-5.692999839782715 C-14.82699966430664,-6.658999919891357 -14.800999641418457,-8.07699966430664 -13.892999649047852,-8.07699966430664 C-13.892999649047852,-8.07699966430664 -11.413999557495117,-8.07699966430664 -11.413999557495117,-8.07699966430664 C-11.413999557495117,-8.07699966430664 -11.413999557495117,-12.729999542236328 -11.413999557495117,-12.729999542236328 C-11.413999557495117,-13.743000030517578 -9.529000282287598,-13.711999893188477 -8.491999626159668,-13.711999893188477 C-7.454999923706055,-13.711999893188477 -5.545000076293945,-13.737000465393066 -5.545000076293945,-12.729999542236328 C-5.545000076293945,-12.729999542236328 -5.545000076293945,-8.07699966430664 -5.545000076293945,-8.07699966430664 C-5.545000076293945,-8.07699966430664 3.4089999198913574,-8.07699966430664 3.4089999198913574,-8.07699966430664 C3.4089999198913574,-8.07699966430664 3.4089999198913574,-13.854999542236328 3.4089999198913574,-13.854999542236328 C3.4089999198913574,-14.541999816894531 4.176000118255615,-14.675000190734863 4.915999889373779,-14.765999794006348 C5.386000156402588,-14.817000389099121 5.859000205993652,-14.84000015258789 6.331999778747559,-14.835000038146973 C7.324999809265137,-14.835000038146973 9.277999877929688,-14.836000442504883 9.277999877929688,-13.854999542236328 C9.277999877929688,-13.854999542236328 9.277999877929688,-8.079000473022461 9.277999877929688,-8.079000473022461 C9.277999877929688,-8.079000473022461 13.814000129699707,-8.079000473022461 13.814000129699707,-8.079000473022461 C13.956000328063965,-8.085000038146973 14.097000122070312,-8.043999671936035 14.21399974822998,-7.961999893188477 C14.739999771118164,-7.585999965667725 14.75100040435791,-6.386000156402588 14.75100040435791,-5.695000171661377 C14.75100040435791,-4.857999801635742 14.684000015258789,-3.309000015258789 13.84000015258789,-3.309000015258789 C13.84000015258789,-3.309000015258789 9.281000137329102,-3.309000015258789 9.281000137329102,-3.309000015258789 C9.281000137329102,-3.309000015258789 9.281000137329102,6.491000175476074 9.281000137329102,6.491000175476074 C9.225000381469727,7.376999855041504 9.406999588012695,8.26099967956543 9.807000160217285,9.053000450134277 C10.439000129699707,10.07800006866455 12.09000015258789,10.0649995803833 13.232000350952148,9.63700008392334 C13.708000183105469,9.458000183105469 14.069000244140625,9.253000259399414 14.354000091552734,9.449999809265137 C14.70300006866455,9.697999954223633 14.748000144958496,11.069000244140625 14.748000144958496,11.515999794006348z"></path></g><g opacity="1" transform="matrix(1,0,0,1,191.75900268554688,21.57200050354004)"><path fill="rgb(255,255,255)" fill-opacity="1" d=" M8.317999839782715,1.4919999837875366 C8.317999839782715,1.4919999837875366 -4.381999969482422,1.4919999837875366 -4.381999969482422,1.4919999837875366 C-4.381999969482422,5.3520002365112305 -2.5369999408721924,7.314000129699707 1.3179999589920044,7.314000129699707 C2.2269999980926514,7.324999809265137 3.134000062942505,7.249000072479248 4.0289998054504395,7.090000152587891 C6.745999813079834,6.572999954223633 7.669000148773193,5.890999794006348 8.376999855041504,5.890999794006348 C9.128999710083008,5.890999794006348 9.12600040435791,6.790999889373779 9.12600040435791,7.833000183105469 C9.12600040435791,9.093000411987305 9.072999954223633,9.642000198364258 8.647000312805176,10.100000381469727 C8.092000007629395,10.699999809265137 4.369999885559082,11.760000228881836 0.7799999713897705,11.760000228881836 C-6.855000019073486,11.760000228881836 -10.371000289916992,7.86899995803833 -10.371000289916992,0.23399999737739563 C-10.371000289916992,-6.796000003814697 -6.761000156402588,-11.760000228881836 0.26600000262260437,-11.760000228881836 C6.802000045776367,-11.760000228881836 10.109999656677246,-7.877999782562256 10.109999656677246,-1.5440000295639038 C10.118000030517578,-0.6029999852180481 10.371000289916992,1.4919999837875366 8.317999839782715,1.4919999837875366z M4.418000221252441,-2.2980000972747803 C4.50600004196167,-5.4120001792907715 3.252000093460083,-7.605000019073486 0.14100000262260437,-7.605000019073486 C-2.811000108718872,-7.605000019073486 -4.244999885559082,-5.27400016784668 -4.370999813079834,-2.2980000972747803 C-4.370999813079834,-2.2980000972747803 4.418000221252441,-2.2980000972747803 4.418000221252441,-2.2980000972747803z"></path></g><g opacity="1" transform="matrix(1,0,0,1,211.3209991455078,21.371000289916992)"><path fill="rgb(255,255,255)" fill-opacity="1" d=" M6.675000190734863,-8.291999816894531 C6.675000190734863,-7.681000232696533 6.686999797821045,-5.992000102996826 6.243000030517578,-5.651000022888184 C5.704999923706055,-5.239999771118164 4.9029998779296875,-6.051000118255615 3.496000051498413,-6.051000118255615 C1.6629999876022339,-6.051000118255615 0.1589999943971634,-3.933000087738037 -0.828000009059906,-2.378999948501587 C-0.828000009059906,-2.378999948501587 -0.828000009059906,10.621000289916992 -0.828000009059906,10.621000289916992 C-0.828000009059906,11.585000038146973 -2.7990000247955322,11.555000305175781 -3.7739999294281006,11.555000305175781 C-4.77400016784668,11.555000305175781 -6.7210001945495605,11.569999694824219 -6.7210001945495605,10.621000289916992 C-6.7210001945495605,10.621000289916992 -6.7210001945495605,-10.229999542236328 -6.7210001945495605,-10.229999542236328 C-6.7210001945495605,-11.14900016784668 -5.196000099182129,-11.163999557495117 -4.195000171661377,-11.163999557495117 C-3.194000005722046,-11.163999557495117 -1.6950000524520874,-11.170000076293945 -1.6950000524520874,-10.229999542236328 C-1.6950000524520874,-10.229999542236328 -1.6950000524520874,-7.636000156402588 -1.6950000524520874,-7.636000156402588 C-0.2639999985694885,-9.680999755859375 1.3980000019073486,-11.562999725341797 3.8450000286102295,-11.562999725341797 C4.693999767303467,-11.585000038146973 5.534999847412109,-11.392000198364258 6.289000034332275,-11.001999855041504 C6.7220001220703125,-10.605999946594238 6.675000190734863,-9.305000305175781 6.675000190734863,-8.291999816894531z"></path></g><g opacity="1" transform="matrix(1,0,0,1,225.6060028076172,13.77400016784668)"><path fill="rgb(255,255,255)" fill-opacity="1" d=" M5.617000102996826,-0.023000000044703484 C5.635000228881836,3.056999921798706 3.1530001163482666,5.566999912261963 0.0729999989271164,5.585000038146973 C0.041999999433755875,5.585000038146973 0.010999999940395355,5.585000038146973 -0.019999999552965164,5.585000038146973 C-3.000999927520752,5.684999942779541 -5.498000144958496,3.3510000705718994 -5.5980000495910645,0.3700000047683716 C-5.6020002365112305,0.24899999797344208 -5.6020002365112305,0.1289999932050705 -5.5980000495910645,0.00800000037997961 C-5.617000102996826,-3.053999900817871 -3.1489999294281006,-5.552999973297119 -0.08699999749660492,-5.572000026702881 C-0.04500000178813934,-5.572000026702881 -0.003000000026077032,-5.571000099182129 0.039000000804662704,-5.570000171661377 C3.003999948501587,-5.684999942779541 5.500999927520752,-3.375 5.616000175476074,-0.4099999964237213 C5.620999813079834,-0.2809999883174896 5.620999813079834,-0.15199999511241913 5.617000102996826,-0.023000000044703484z M4.327000141143799,0.06199999898672104 C4.288000106811523,-2.322999954223633 2.3239998817443848,-4.224999904632568 -0.061000000685453415,-4.185999870300293 C-2.446000099182129,-4.1479997634887695 -4.348999977111816,-2.183000087738037 -4.309999942779541,0.20200000703334808 C-4.271999835968018,2.549999952316284 -2.365000009536743,4.436999797821045 -0.017999999225139618,4.451000213623047 C2.299999952316284,4.5329999923706055 4.245999813079834,2.7219998836517334 4.328999996185303,0.40400001406669617 C4.333000183105469,0.28999999165534973 4.331999778747559,0.17599999904632568 4.327000141143799,0.06199999898672104z M2.6110000610351562,2.7980000972747803 C2.5399999618530273,2.9649999141693115 1.4179999828338623,2.941999912261963 1.1920000314712524,2.8570001125335693 C1.0729999542236328,2.811000108718872 0.9879999756813049,2.7049999237060547 0.968999981880188,2.5789999961853027 C0.6079999804496765,1.2690000534057617 0.5170000195503235,0.6430000066757202 -0.44999998807907104,0.6430000066757202 C-0.44999998807907104,0.6430000066757202 -0.8379999995231628,0.6430000066757202 -0.8379999995231628,0.6430000066757202 C-0.8379999995231628,0.6430000066757202 -0.8379999995231628,2.6519999504089355 -0.8379999995231628,2.6519999504089355 C-0.8379999995231628,2.9519999027252197 -1.184999942779541,2.9240000247955322 -1.524999976158142,2.9240000247955322 C-1.8650000095367432,2.9240000247955322 -2.256999969482422,2.946000099182129 -2.256999969482422,2.6519999504089355 C-2.256999969482422,2.6519999504089355 -2.256999969482422,-2.500999927520752 -2.256999969482422,-2.500999927520752 C-2.305000066757202,-2.822000026702881 -2.0840001106262207,-3.122999906539917 -1.7630000114440918,-3.1710000038146973 C-1.7170000076293945,-3.177000045776367 -1.6710000038146973,-3.177999973297119 -1.625,-3.1740000247955322 C-1.625,-3.1740000247955322 0.026000000536441803,-3.1740000247955322 0.026000000536441803,-3.1740000247955322 C1.3450000286102295,-3.1740000247955322 2.4079999923706055,-2.7699999809265137 2.4079999923706055,-1.4539999961853027 C2.437999963760376,-0.640999972820282 1.8380000591278076,0.05900000035762787 1.0299999713897705,0.15399999916553497 C1.2699999809265137,0.2370000034570694 1.4900000095367432,0.36899998784065247 1.6759999990463257,0.5419999957084656 C2.187000036239624,1.1950000524520874 2.510999917984009,1.975000023841858 2.6110000610351562,2.7980000972747803z M0.8539999723434448,-1.284999966621399 C0.8539999723434448,-2.1570000648498535 0.019999999552965164,-2.061000108718872 -0.8379999995231628,-2.061000108718872 C-0.8379999995231628,-2.061000108718872 -0.8379999995231628,-0.45399999618530273 -0.8379999995231628,-0.45399999618530273 C0.023000000044703484,-0.4519999921321869 0.8550000190734863,-0.367000013589859 0.8550000190734863,-1.2860000133514404 C0.8550000190734863,-1.2860000133514404 0.8539999723434448,-1.284999966621399 0.8539999723434448,-1.284999966621399z"></path></g></g><g style="display: block;" transform="matrix(1,0,0,1,128.16799926757812,88.39599609375)" opacity="1"><g opacity="1" transform="matrix(1,0,0,1,8.20199966430664,8.20199966430664)"><path fill="rgb(237,28,36)" fill-opacity="1" d=" M0,-7.952000141143799 C4.392000198364258,-7.952000141143799 7.952000141143799,-4.392000198364258 7.952000141143799,0 C7.952000141143799,4.392000198364258 4.392000198364258,7.952000141143799 0,7.952000141143799 C-4.392000198364258,7.952000141143799 -7.952000141143799,4.392000198364258 -7.952000141143799,0 C-7.952000141143799,-4.392000198364258 -4.392000198364258,-7.952000141143799 0,-7.952000141143799z"></path></g></g><g filter="url(#__lottie_element_22)" style="display: block;" transform="matrix(1,0,0,1,133.80300903320312,106.822998046875)" opacity="1"><g opacity="1" transform="matrix(1,0,0,1,14.16100025177002,14.16100025177002)"><path fill="rgb(255,255,255)" fill-opacity="1" d=" M-10.571000099182129,13.91100025177002 C-12.416000366210938,13.91100025177002 -13.91100025177002,12.416999816894531 -13.91100025177002,10.571999549865723 C-13.91100025177002,10.571999549865723 -13.91100025177002,-2.7119998931884766 -13.91100025177002,-2.7119998931884766 C-13.902999877929688,-8.894000053405762 -8.892999649047852,-13.902999877929688 -2.7109999656677246,-13.91100025177002 C-2.7109999656677246,-13.91100025177002 10.572999954223633,-13.91100025177002 10.572999954223633,-13.91100025177002 C12.418000221252441,-13.907999992370605 13.91100025177002,-12.41100025177002 13.907999992370605,-10.565999984741211 C13.904999732971191,-8.725000381469727 12.413999557495117,-7.235000133514404 10.572999954223633,-7.23199987411499 C10.572999954223633,-7.23199987411499 -2.7100000381469727,-7.23199987411499 -2.7100000381469727,-7.23199987411499 C-5.205999851226807,-7.229000091552734 -7.228000164031982,-5.205999851226807 -7.230999946594238,-2.7100000381469727 C-7.230999946594238,-2.7100000381469727 -7.230999946594238,10.574000358581543 -7.230999946594238,10.574000358581543 C-7.23199987411499,12.418000221252441 -8.72700023651123,13.91100025177002 -10.571000099182129,13.91100025177002z"></path></g></g><g filter="url(#__lottie_element_19)" style="display: block;" transform="matrix(1,0,0,1,76.73399353027344,106.82099914550781)" opacity="1"><g opacity="1" transform="matrix(1,0,0,1,14.16100025177002,14.161999702453613)"><path fill="rgb(255,255,255)" fill-opacity="1" d=" M10.571000099182129,13.911999702453613 C8.72599983215332,13.911999702453613 7.230999946594238,12.416999816894531 7.230999946594238,10.571999549865723 C7.230999946594238,10.571999549865723 7.230999946594238,-2.7109999656677246 7.230999946594238,-2.7109999656677246 C7.228000164031982,-5.206999778747559 5.205999851226807,-7.229000091552734 2.7100000381469727,-7.23199987411499 C2.7100000381469727,-7.23199987411499 -10.572999954223633,-7.23199987411499 -10.572999954223633,-7.23199987411499 C-12.418000221252441,-7.235000133514404 -13.91100025177002,-8.732000350952148 -13.907999992370605,-10.57699966430664 C-13.904999732971191,-12.418000221252441 -12.413999557495117,-13.909000396728516 -10.572999954223633,-13.911999702453613 C-10.572999954223633,-13.911999702453613 2.7109999656677246,-13.911999702453613 2.7109999656677246,-13.911999702453613 C8.892999649047852,-13.904000282287598 13.902999877929688,-8.894000053405762 13.91100025177002,-2.7119998931884766 C13.91100025177002,-2.7119998931884766 13.91100025177002,10.571999549865723 13.91100025177002,10.571999549865723 C13.91100025177002,12.416999816894531 12.416000366210938,13.911999702453613 10.571000099182129,13.911999702453613z"></path></g></g><g filter="url(#__lottie_element_16)" style="display: block;" transform="matrix(1,0,0,1,133.80099487304688,49.74300003051758)" opacity="1"><g opacity="1" transform="matrix(1,0,0,1,14.163999557495117,14.170000076293945)"><path fill="rgb(255,255,255)" fill-opacity="1" d=" M10.571999549865723,13.91100025177002 C10.571999549865723,13.91100025177002 -2.7109999656677246,13.91100025177002 -2.7109999656677246,13.91100025177002 C-8.892999649047852,13.902999877929688 -13.902999877929688,8.894000053405762 -13.91100025177002,2.7119998931884766 C-13.91100025177002,2.7119998931884766 -13.91100025177002,-10.571999549865723 -13.91100025177002,-10.571999549865723 C-13.913999557495117,-12.416999816894531 -12.420999526977539,-13.913999557495117 -10.576000213623047,-13.916999816894531 C-8.730999946594238,-13.920000076293945 -7.234000205993652,-12.427000045776367 -7.230999946594238,-10.583000183105469 C-7.230999946594238,-10.583000183105469 -7.230999946594238,-10.571999549865723 -7.230999946594238,-10.571999549865723 C-7.230999946594238,-10.571999549865723 -7.230999946594238,2.7119998931884766 -7.230999946594238,2.7119998931884766 C-7.228000164031982,5.208000183105469 -5.205999851226807,7.229000091552734 -2.7100000381469727,7.23199987411499 C-2.7100000381469727,7.23199987411499 10.574000358581543,7.23199987411499 10.574000358581543,7.23199987411499 C12.418999671936035,7.23199987411499 13.913999557495117,8.72700023651123 13.913999557495117,10.571999549865723 C13.913999557495117,12.416999816894531 12.418999671936035,13.913000106811523 10.574000358581543,13.913000106811523 C10.574000358581543,13.913000106811523 10.571999549865723,13.91100025177002 10.571999549865723,13.91100025177002z"></path></g></g><g filter="url(#__lottie_element_13)" style="display: block;" transform="matrix(1,0,0,1,76.73199462890625,49.75199890136719)" opacity="1"><g opacity="1" transform="matrix(1,0,0,1,14.163000106811523,14.16100025177002)"><path fill="rgb(255,255,255)" fill-opacity="1" d=" M2.7119998931884766,13.91100025177002 C2.7119998931884766,13.91100025177002 -10.572999954223633,13.91100025177002 -10.572999954223633,13.91100025177002 C-12.418000221252441,13.91100025177002 -13.913000106811523,12.416000366210938 -13.913000106811523,10.571000099182129 C-13.913000106811523,8.72599983215332 -12.418000221252441,7.230999946594238 -10.572999954223633,7.230999946594238 C-10.572999954223633,7.230999946594238 2.7119998931884766,7.230999946594238 2.7119998931884766,7.230999946594238 C5.208000183105469,7.228000164031982 7.229000091552734,5.205999851226807 7.23199987411499,2.7100000381469727 C7.23199987411499,2.7100000381469727 7.23199987411499,-10.572999954223633 7.23199987411499,-10.572999954223633 C7.235000133514404,-12.418000221252441 8.732000350952148,-13.91100025177002 10.57699966430664,-13.907999992370605 C12.418000221252441,-13.904999732971191 13.90999984741211,-12.413999557495117 13.913000106811523,-10.572999954223633 C13.913000106811523,-10.572999954223633 13.913000106811523,2.7109999656677246 13.913000106811523,2.7109999656677246 C13.904999732971191,8.894000053405762 8.895000457763672,13.904000282287598 2.7119998931884766,13.91100025177002z"></path></g></g></g></svg>
